<svg version="1.2" baseProfile="tiny-ps" xmlns="http://www.w3.org/2000/svg" viewBox="0 0 1351 954" width="1351"
     height="954">
    <title>birds-iStock-495116406-ai</title>
    <defs>
        <linearGradient id="grd1" gradientUnits="userSpaceOnUse" x1="15.063" y1="327.151" x2="87.747" y2="345.391">
            <stop offset="0" stop-color="#79bd9a"/>
            <stop offset="0.51" stop-color="#41bc7d"/>
            <stop offset="1" stop-color="#124c2e"/>
        </linearGradient>
        <linearGradient id="grd2" gradientUnits="userSpaceOnUse" x1="24.873" y1="288.06" x2="183.263" y2="327.807">
            <stop offset="0" stop-color="#79bd9a"/>
            <stop offset="0.51" stop-color="#41bc7d"/>
            <stop offset="1" stop-color="#124c2e"/>
        </linearGradient>
        <linearGradient id="grd3" gradientUnits="userSpaceOnUse" x1="633.075" y1="75.843" x2="501.721" y2="89.447">
            <stop offset="0" stop-color="#79bd9a"/>
            <stop offset="0.51" stop-color="#41bc7d"/>
            <stop offset="1" stop-color="#124c2e"/>
        </linearGradient>
        <linearGradient id="grd4" gradientUnits="userSpaceOnUse" x1="557.258" y1="262.09" x2="378.694" y2="280.583">
            <stop offset="0" stop-color="#79bd9a"/>
            <stop offset="0.51" stop-color="#41bc7d"/>
            <stop offset="1" stop-color="#124c2e"/>
        </linearGradient>
        <linearGradient id="grd5" gradientUnits="userSpaceOnUse" x1="205.55" y1="203.86" x2="457.729" y2="267.143">
            <stop offset="0" stop-color="#79bd9a"/>
            <stop offset="0.51" stop-color="#41bc7d"/>
            <stop offset="1" stop-color="#124c2e"/>
        </linearGradient>
        <linearGradient id="grd6" gradientUnits="userSpaceOnUse" x1="76.52" y1="380.382" x2="356.509" y2="91.326">
            <stop offset="0" stop-color="#79bd9a"/>
            <stop offset="0.51" stop-color="#41bc7d"/>
            <stop offset="1" stop-color="#124c2e"/>
        </linearGradient>
        <linearGradient id="grd7" gradientUnits="userSpaceOnUse" x1="249.842" y1="62.495" x2="707.036" y2="177.226">
            <stop offset="0" stop-color="#79bd9a"/>
            <stop offset="0.51" stop-color="#41bc7d"/>
            <stop offset="1" stop-color="#124c2e"/>
        </linearGradient>
        <linearGradient id="grd8" gradientUnits="userSpaceOnUse" x1="842.484" y1="31.479" x2="809.4" y2="12.512">
            <stop offset="0" stop-color="#47cff6"/>
            <stop offset="1" stop-color="#0b486b"/>
        </linearGradient>
        <linearGradient id="grd9" gradientUnits="userSpaceOnUse" x1="904.367" y1="479.295" x2="881.698" y2="675.793">
            <stop offset="0" stop-color="#47cff6"/>
            <stop offset="1" stop-color="#0b486b"/>
        </linearGradient>
        <linearGradient id="grd10" gradientUnits="userSpaceOnUse" x1="1356.348" y1="480.805" x2="954.375" y2="250.361">
            <stop offset="0" stop-color="#47cff6"/>
            <stop offset="1" stop-color="#0b486b"/>
        </linearGradient>
        <linearGradient id="grd11" gradientUnits="userSpaceOnUse" x1="729.908" y1="366.851" x2="1010.866" y2="699.611">
            <stop offset="0" stop-color="#47cff6"/>
            <stop offset="1" stop-color="#0b486b"/>
        </linearGradient>
        <linearGradient id="grd12" gradientUnits="userSpaceOnUse" x1="959.768" y1="134.433" x2="959.466" y2="35.805">
            <stop offset="0" stop-color="#47cff6"/>
            <stop offset="1" stop-color="#0b486b"/>
        </linearGradient>
        <linearGradient id="grd13" gradientUnits="userSpaceOnUse" x1="1164.352" y1="184.09" x2="1034.014" y2="-40.076">
            <stop offset="0" stop-color="#47cff6"/>
            <stop offset="1" stop-color="#0b486b"/>
        </linearGradient>
        <linearGradient id="grd14" gradientUnits="userSpaceOnUse" x1="1354.527" y1="465.434" x2="1239.542" y2="152.494">
            <stop offset="0" stop-color="#46cff5"/>
            <stop offset="1" stop-color="#0b486b"/>
        </linearGradient>
        <linearGradient id="grd15" gradientUnits="userSpaceOnUse" x1="1017.564" y1="695.527" x2="1140.023" y2="548.677">
            <stop offset="0" stop-color="#47cff6"/>
            <stop offset="1" stop-color="#00446a"/>
        </linearGradient>
    </defs>
    <style>
        tspan { white-space:pre }
        .shp0 { fill: url(#grd1) }
        .shp1 { fill: url(#grd2) }
        .shp2 { fill: url(#grd3) }
        .shp3 { fill: url(#grd4) }
        .shp4 { fill: url(#grd5) }
        .shp5 { fill: url(#grd6) }
        .shp6 { fill: url(#grd7) }
        .shp7 { fill: url(#grd8) }
        .shp8 { fill: url(#grd9) }
        .shp9 { fill: url(#grd10) }
        .shp10 { fill: url(#grd11) }
        .shp11 { fill: url(#grd12) }
        .shp12 { fill: url(#grd13) }
        .shp13 { fill: url(#grd14) }
        .shp14 { fill: url(#grd15) }
        .shp15 { fill: #f7f7f7 }
        .shp16 { fill: #f6f6f6 }
        .shp17 { fill: #f5f5f5 }
        .shp18 { fill: #f4f4f4 }
        .shp19 { fill: #f3f3f3 }
        .shp20 { fill: #f2f2f2 }
        .shp21 { fill: #f1f1f1 }
        .shp22 { fill: #f0f0f0 }
        .shp23 { fill: #efefef }
        .shp24 { fill: #eeeeee }
        .shp25 { fill: #ededed }
        .shp26 { fill: #ececec }
        .shp27 { fill: #ebebeb }
        .shp28 { fill: #eaeaea }
        .shp29 { fill: #e9e9e9 }
        .shp30 { fill: #e8e8e8 }
        .shp31 { fill: #e7e7e7 }
        .shp32 { fill: #e6e6e6 }
        .shp33 { fill: #e5e5e5 }
        .shp34 { fill: #e4e4e4 }
        .shp35 { fill: #e3e3e3 }
        .shp36 { fill: #e2e2e2 }
        .shp37 { fill: #e1e1e1 }
        .shp38 { fill: #e0e0e0 }
        .shp39 { fill: #dfdfdf }
        .shp40 { fill: #dedede }
        .shp41 { fill: #dddddd }
        .shp42 { fill: #dcdcdc }
        .shp43 { fill: #dbdbdb }
        .shp44 { fill: #dadada }
        .shp45 { fill: #d9d9d9 }
        .shp46 { fill: #d8d8d8 }
        .shp47 { fill: #d7d7d7 }
        .shp48 { fill: #d6d6d6 }
        .shp49 { fill: #d5d5d5 }
        .shp50 { fill: #d4d4d4 }
        .shp51 { fill: #d3d3d3 }
        .shp52 { fill: #d2d2d2 }
        .shp53 { fill: #d1d1d1 }
        .shp54 { fill: #d0d0d0 }
        .shp55 { fill: #cfcfcf }
        .shp56 { fill: #cecece }
        .shp57 { fill: #cdcdcd }
        .shp58 { fill: #cccccc }
    </style>
    <g id="\321\353\356\351 2">
        <path id="&lt;Path&gt;" class="shp0" d="M0.73 441.99L79.02 380.18L14.09 331.03L0.73 441.99Z"/>
        <path id="&lt;Path&gt;" class="shp1" d="M182.29 331.69L14.09 331.03L144.68 446.41L182.29 331.69Z"/>
        <path id="&lt;Path&gt;" class="shp2" d="M632.17 67.09L530.19 0.76L501.31 85.47L632.17 67.09Z"/>
        <path id="&lt;Path&gt;" class="shp3" d="M530.19 0.76L359.38 94.11L449.57 269.22L530.19 0.76Z"/>
        <path id="&lt;Path&gt;" class="shp4" d="M144.68 446.41L449.57 269.22L449.03 301.8L144.68 446.41Z"/>
        <path id="&lt;Path&gt;" class="shp5"
              d="M449.57 269.22L359.38 94.11L182.29 331.69L144.68 446.41L449.57 269.22Z"/>
        <path id="&lt;Path&gt;" class="shp6" d="M359.38 94.11L615.11 543.54L182.29 331.69L359.38 94.11Z"/>
        <path id="&lt;Path&gt;" class="shp7" d="M808.25 91.19L839.17 34.19L772.89 76.2L808.25 91.19Z"/>
        <path id="&lt;Path&gt;" class="shp8" d="M964.69 487.71L1011.94 693.95L889.92 626.28L964.69 487.71Z"/>
        <path id="&lt;Path&gt;" class="shp9"
              d="M1337.08 514.42L1288.82 446.7L919.27 311.61L912.57 427.93L1337.08 514.42Z"/>
        <path id="&lt;Path&gt;" class="shp10" d="M786.74 318.87L1013.92 697.03L976.78 329.36L786.74 318.87Z"/>
        <path id="&lt;Path&gt;" class="shp11" d="M955.77 134.44L838.03 36.18L807.12 93.17L955.77 134.44Z"/>
        <path id="&lt;Path&gt;" class="shp12"
              d="M741.94 223.73L808.25 91.19L1160.89 186.1L787.02 319.91L741.94 223.73Z"/>
        <path id="&lt;Path&gt;" class="shp13" d="M1350.77 466.81L1159.12 184.32L786.74 318.87L1350.77 466.81Z"/>
        <path id="&lt;Path&gt;" class="shp14" d="M1014.49 692.97L731.69 247.74L745.26 219.48L1014.49 692.97Z"/>
        <path id="&lt;Path&gt;" class="shp15"
              d="M600.58 929C600.58 942.8 717.53 954 861.79 954C1006.05 954 1123 942.8 1123 929C1123 915.19 1006.05 904 861.79 904C717.53 904 600.58 915.19 600.58 929Z"/>
        <path id="&lt;Path&gt;" class="shp16"
              d="M609.38 929.01C609.38 942.54 723.99 953.51 865.38 953.51C1006.76 953.51 1121.37 942.54 1121.37 929.01C1121.37 915.48 1006.76 904.51 865.38 904.51C723.99 904.51 609.38 915.48 609.38 929.01Z"/>
        <path id="&lt;Path&gt;" class="shp17"
              d="M618.17 929.02C618.17 942.28 730.46 953.02 868.96 953.02C1007.47 953.02 1119.75 942.28 1119.75 929.02C1119.75 915.77 1007.47 905.02 868.96 905.02C730.46 905.02 618.17 915.77 618.17 929.02Z"/>
        <path id="&lt;Path&gt;" class="shp18"
              d="M626.97 929.03C626.97 942.01 736.92 952.54 872.55 952.54C1008.18 952.54 1118.13 942.01 1118.13 929.03C1118.13 916.05 1008.18 905.53 872.55 905.53C736.92 905.53 626.97 916.05 626.97 929.03Z"/>
        <path id="&lt;Path&gt;" class="shp19"
              d="M635.76 929.05C635.76 941.75 743.38 952.05 876.13 952.05C1008.88 952.05 1116.5 941.75 1116.5 929.05C1116.5 916.34 1008.88 906.04 876.13 906.04C743.38 906.04 635.76 916.34 635.76 929.05Z"/>
        <path id="&lt;Path&gt;" class="shp20"
              d="M644.56 929.06C644.56 941.49 749.84 951.56 879.72 951.56C1009.59 951.56 1114.88 941.49 1114.88 929.06C1114.88 916.63 1009.59 906.55 879.72 906.55C749.84 906.55 644.56 916.63 644.56 929.06Z"/>
        <path id="&lt;Path&gt;" class="shp21"
              d="M653.35 929.07C653.35 941.22 756.31 951.08 883.3 951.08C1010.3 951.08 1113.25 941.22 1113.25 929.07C1113.25 916.91 1010.3 907.06 883.3 907.06C756.31 907.06 653.35 916.91 653.35 929.07Z"/>
        <path id="&lt;Path&gt;" class="shp22"
              d="M662.15 929.08C662.15 940.96 762.77 950.59 886.89 950.59C1011.01 950.59 1111.63 940.96 1111.63 929.08C1111.63 917.2 1011.01 907.57 886.89 907.57C762.77 907.57 662.15 917.2 662.15 929.08Z"/>
        <path id="&lt;Path&gt;" class="shp23"
              d="M670.94 929.09C670.94 940.7 769.23 950.1 890.47 950.1C1011.72 950.1 1110 940.7 1110 929.09C1110 917.49 1011.72 908.08 890.47 908.08C769.23 908.08 670.94 917.49 670.94 929.09Z"/>
        <path id="&lt;Path&gt;" class="shp24"
              d="M679.74 929.1C679.74 940.43 775.7 949.62 894.06 949.62C1012.43 949.62 1108.38 940.43 1108.38 929.1C1108.38 917.77 1012.43 908.59 894.06 908.59C775.7 908.59 679.74 917.77 679.74 929.1Z"/>
        <path id="&lt;Path&gt;" class="shp25"
              d="M688.54 929.11C688.54 940.17 782.16 949.13 897.64 949.13C1013.13 949.13 1106.76 940.17 1106.76 929.11C1106.76 918.06 1013.13 909.1 897.64 909.1C782.16 909.1 688.54 918.06 688.54 929.11Z"/>
        <path id="&lt;Path&gt;" class="shp25"
              d="M697.33 929.13C697.33 939.9 788.62 948.64 901.23 948.64C1013.84 948.64 1105.13 939.9 1105.13 929.13C1105.13 918.35 1013.84 909.61 901.23 909.61C788.62 909.61 697.33 918.35 697.33 929.13Z"/>
        <path id="&lt;Path&gt;" class="shp26"
              d="M706.13 929.14C706.13 939.64 795.08 948.15 904.82 948.15C1014.55 948.15 1103.51 939.64 1103.51 929.14C1103.51 918.63 1014.55 910.12 904.82 910.12C795.08 910.12 706.13 918.63 706.13 929.14Z"/>
        <path id="&lt;Path&gt;" class="shp27"
              d="M714.92 929.15C714.92 939.38 801.54 947.67 908.4 947.67C1015.26 947.67 1101.88 939.38 1101.88 929.15C1101.88 918.92 1015.26 910.63 908.4 910.63C801.54 910.63 714.92 918.92 714.92 929.15Z"/>
        <path id="&lt;Path&gt;" class="shp28"
              d="M723.71 929.16C723.71 939.11 808.01 947.18 911.99 947.18C1015.97 947.18 1100.26 939.11 1100.26 929.16C1100.26 919.21 1015.97 911.14 911.99 911.14C808.01 911.14 723.71 919.21 723.71 929.16Z"/>
        <path id="&lt;Path&gt;" class="shp29"
              d="M732.51 929.17C732.51 938.85 814.47 946.69 915.57 946.69C1016.67 946.69 1098.63 938.85 1098.63 929.17C1098.63 919.5 1016.67 911.65 915.57 911.65C814.47 911.65 732.51 919.5 732.51 929.17Z"/>
        <path id="&lt;Path&gt;" class="shp30"
              d="M741.3 929.18C741.3 938.58 820.93 946.2 919.16 946.2C1017.38 946.2 1097.01 938.58 1097.01 929.18C1097.01 919.78 1017.38 912.16 919.16 912.16C820.93 912.16 741.3 919.78 741.3 929.18Z"/>
        <path id="&lt;Path&gt;" class="shp31"
              d="M750.1 929.2C750.1 938.32 827.39 945.72 922.74 945.72C1018.09 945.72 1095.39 938.32 1095.39 929.2C1095.39 920.07 1018.09 912.67 922.74 912.67C827.39 912.67 750.1 920.07 750.1 929.2Z"/>
        <path id="&lt;Path&gt;" class="shp32"
              d="M758.89 929.21C758.89 938.06 833.86 945.23 926.33 945.23C1018.8 945.23 1093.76 938.06 1093.76 929.21C1093.76 920.36 1018.8 913.18 926.33 913.18C833.86 913.18 758.89 920.36 758.89 929.21Z"/>
        <path id="&lt;Path&gt;" class="shp33"
              d="M767.69 929.22C767.69 937.79 840.32 944.74 929.91 944.74C1019.51 944.74 1092.14 937.79 1092.14 929.22C1092.14 920.64 1019.51 913.69 929.91 913.69C840.32 913.69 767.69 920.64 767.69 929.22Z"/>
        <path id="&lt;Path&gt;" class="shp34"
              d="M776.48 929.23C776.48 937.53 846.78 944.26 933.5 944.26C1020.21 944.26 1090.51 937.53 1090.51 929.23C1090.51 920.93 1020.21 914.2 933.5 914.2C846.78 914.2 776.48 920.93 776.48 929.23Z"/>
        <path id="&lt;Path&gt;" class="shp35"
              d="M785.28 929.24C785.28 937.27 853.25 943.77 937.08 943.77C1020.92 943.77 1088.89 937.27 1088.89 929.24C1088.89 921.22 1020.92 914.71 937.08 914.71C853.25 914.71 785.28 921.22 785.28 929.24Z"/>
        <path id="&lt;Path&gt;" class="shp36"
              d="M794.08 929.25C794.08 937 859.71 943.28 940.67 943.28C1021.63 943.28 1087.27 937 1087.27 929.25C1087.27 921.51 1021.63 915.22 940.67 915.22C859.71 915.22 794.08 921.51 794.08 929.25Z"/>
        <path id="&lt;Path&gt;" class="shp37"
              d="M802.87 929.26C802.87 936.74 866.17 942.8 944.26 942.8C1022.34 942.8 1085.64 936.74 1085.64 929.26C1085.64 921.79 1022.34 915.73 944.26 915.73C866.17 915.73 802.87 921.79 802.87 929.26Z"/>
        <path id="&lt;Path&gt;" class="shp38"
              d="M811.67 929.28C811.67 936.47 872.63 942.31 947.84 942.31C1023.05 942.31 1084.02 936.47 1084.02 929.28C1084.02 922.08 1023.05 916.24 947.84 916.24C872.63 916.24 811.67 922.08 811.67 929.28Z"/>
        <path id="&lt;Path&gt;" class="shp39"
              d="M820.46 929.29C820.46 936.21 879.1 941.82 951.43 941.82C1023.76 941.82 1082.39 936.21 1082.39 929.29C1082.39 922.37 1023.76 916.75 951.43 916.75C879.1 916.75 820.46 922.37 820.46 929.29Z"/>
        <path id="&lt;Path&gt;" class="shp40"
              d="M829.26 929.3C829.26 935.95 885.56 941.34 955.01 941.34C1024.46 941.34 1080.77 935.95 1080.77 929.3C1080.77 922.65 1024.46 917.26 955.01 917.26C885.56 917.26 829.26 922.65 829.26 929.3Z"/>
        <path id="&lt;Path&gt;" class="shp41"
              d="M838.05 929.31C838.05 935.68 892.02 940.85 958.6 940.85C1025.17 940.85 1079.14 935.68 1079.14 929.31C1079.14 922.94 1025.17 917.77 958.6 917.77C892.02 917.77 838.05 922.94 838.05 929.31Z"/>
        <path id="&lt;Path&gt;" class="shp42"
              d="M846.85 929.32C846.85 935.42 898.48 940.36 962.18 940.36C1025.88 940.36 1077.52 935.42 1077.52 929.32C1077.52 923.23 1025.88 918.28 962.18 918.28C898.48 918.28 846.85 923.23 846.85 929.32Z"/>
        <path id="&lt;Path&gt;" class="shp43"
              d="M855.64 929.33C855.64 935.16 904.95 939.87 965.77 939.87C1026.59 939.87 1075.9 935.16 1075.9 929.33C1075.9 923.51 1026.59 918.8 965.77 918.8C904.95 918.8 855.64 923.51 855.64 929.33Z"/>
        <path id="&lt;Path&gt;" class="shp44"
              d="M864.44 929.35C864.44 934.89 911.41 939.39 969.35 939.39C1027.3 939.39 1074.27 934.89 1074.27 929.35C1074.27 923.8 1027.3 919.3 969.35 919.3C911.41 919.3 864.44 923.8 864.44 929.35Z"/>
        <path id="&lt;Path&gt;" class="shp45"
              d="M873.23 929.36C873.23 934.63 917.87 938.9 972.94 938.9C1028.01 938.9 1072.65 934.63 1072.65 929.36C1072.65 924.09 1028.01 919.81 972.94 919.81C917.87 919.81 873.23 924.09 873.23 929.36Z"/>
        <path id="&lt;Path&gt;" class="shp46"
              d="M882.03 929.37C882.03 934.37 924.33 938.41 976.52 938.41C1028.71 938.41 1071.02 934.37 1071.02 929.37C1071.02 924.38 1028.71 920.32 976.52 920.32C924.33 920.32 882.03 924.38 882.03 929.37Z"/>
        <path id="&lt;Path&gt;" class="shp47"
              d="M890.82 929.38C890.82 934.1 930.8 937.93 980.11 937.93C1029.42 937.93 1069.4 934.1 1069.4 929.38C1069.4 924.66 1029.42 920.84 980.11 920.84C930.8 920.84 890.82 924.66 890.82 929.38Z"/>
        <path id="&lt;Path&gt;" class="shp48"
              d="M899.62 929.39C899.62 933.84 937.26 937.44 983.7 937.44C1030.13 937.44 1067.78 933.84 1067.78 929.39C1067.78 924.95 1030.13 921.35 983.7 921.35C937.26 921.35 899.62 924.95 899.62 929.39Z"/>
        <path id="&lt;Path&gt;" class="shp49"
              d="M908.41 929.4C908.41 933.57 943.72 936.95 987.28 936.95C1030.84 936.95 1066.15 933.57 1066.15 929.4C1066.15 925.24 1030.84 921.86 987.28 921.86C943.72 921.86 908.41 925.24 908.41 929.4Z"/>
        <path id="&lt;Path&gt;" class="shp50"
              d="M917.2 929.42C917.2 933.31 950.18 936.46 990.87 936.46C1031.55 936.46 1064.53 933.31 1064.53 929.42C1064.53 925.52 1031.55 922.37 990.87 922.37C950.18 922.37 917.2 925.52 917.2 929.42Z"/>
        <path id="&lt;Path&gt;" class="shp51"
              d="M926 929.43C926 933.05 956.65 935.98 994.45 935.98C1032.26 935.98 1062.9 933.05 1062.9 929.43C1062.9 925.81 1032.26 922.88 994.45 922.88C956.65 922.88 926 925.81 926 929.43Z"/>
        <path id="&lt;Path&gt;" class="shp52"
              d="M934.8 929.44C934.8 932.78 963.11 935.49 998.04 935.49C1032.96 935.49 1061.28 932.78 1061.28 929.44C1061.28 926.1 1032.96 923.39 998.04 923.39C963.11 923.39 934.8 926.1 934.8 929.44Z"/>
        <path id="&lt;Path&gt;" class="shp53"
              d="M943.59 929.45C943.59 932.52 969.57 935 1001.62 935C1033.67 935 1059.65 932.52 1059.65 929.45C1059.65 926.38 1033.67 923.9 1001.62 923.9C969.57 923.9 943.59 926.38 943.59 929.45Z"/>
        <path id="&lt;Path&gt;" class="shp54"
              d="M952.39 929.46C952.39 932.25 976.04 934.52 1005.21 934.52C1034.38 934.52 1058.03 932.25 1058.03 929.46C1058.03 926.67 1034.38 924.41 1005.21 924.41C976.04 924.41 952.39 926.67 952.39 929.46Z"/>
        <path id="&lt;Path&gt;" class="shp55"
              d="M961.18 929.47C961.18 931.99 982.5 934.03 1008.79 934.03C1035.09 934.03 1056.41 931.99 1056.41 929.47C1056.41 926.96 1035.09 924.92 1008.79 924.92C982.5 924.92 961.18 926.96 961.18 929.47Z"/>
        <path id="&lt;Path&gt;" class="shp56"
              d="M969.98 929.48C969.98 931.73 988.96 933.54 1012.38 933.54C1035.8 933.54 1054.78 931.73 1054.78 929.48C1054.78 927.24 1035.8 925.43 1012.38 925.43C988.96 925.43 969.98 927.24 969.98 929.48Z"/>
        <path id="&lt;Path&gt;" class="shp57"
              d="M978.77 929.5C978.77 931.46 995.42 933.05 1015.96 933.05C1036.5 933.05 1053.16 931.46 1053.16 929.5C1053.16 927.53 1036.5 925.94 1015.96 925.94C995.42 925.94 978.77 927.53 978.77 929.5Z"/>
        <path id="&lt;Path&gt;" class="shp58"
              d="M987.57 929.51C987.57 931.2 1001.88 932.57 1019.55 932.57C1037.21 932.57 1051.53 931.2 1051.53 929.51C1051.53 927.82 1037.21 926.45 1019.55 926.45C1001.88 926.45 987.57 927.82 987.57 929.51Z"/>
        <path id="&lt;Path&gt;" class="shp15"
              d="M530 810C530 823.81 413.05 835 268.79 835C124.53 835 7.58 823.81 7.58 810C7.58 796.19 124.53 785 268.79 785C413.05 785 530 796.19 530 810Z"/>
        <path id="&lt;Path&gt;" class="shp16"
              d="M521.2 810.01C521.2 823.54 406.59 834.51 265.2 834.51C123.82 834.51 9.21 823.54 9.21 810.01C9.21 796.48 123.82 785.51 265.2 785.51C406.59 785.51 521.2 796.48 521.2 810.01Z"/>
        <path id="&lt;Path&gt;" class="shp17"
              d="M512.41 810.02C512.41 823.28 400.13 834.03 261.62 834.03C123.12 834.03 10.83 823.28 10.83 810.02C10.83 796.77 123.12 786.02 261.62 786.02C400.13 786.02 512.41 796.77 512.41 810.02Z"/>
        <path id="&lt;Path&gt;" class="shp18"
              d="M503.61 810.04C503.61 823.02 393.66 833.54 258.04 833.54C122.41 833.54 12.46 823.02 12.46 810.04C12.46 797.05 122.41 786.53 258.04 786.53C393.66 786.53 503.61 797.05 503.61 810.04Z"/>
        <path id="&lt;Path&gt;" class="shp19"
              d="M494.82 810.05C494.82 822.75 387.2 833.05 254.45 833.05C121.7 833.05 14.08 822.75 14.08 810.05C14.08 797.34 121.7 787.04 254.45 787.04C387.2 787.04 494.82 797.34 494.82 810.05Z"/>
        <path id="&lt;Path&gt;" class="shp20"
              d="M486.02 810.06C486.02 822.49 380.74 832.56 250.86 832.56C120.99 832.56 15.71 822.49 15.71 810.06C15.71 797.63 120.99 787.55 250.86 787.55C380.74 787.55 486.02 797.63 486.02 810.06Z"/>
        <path id="&lt;Path&gt;" class="shp21"
              d="M477.23 810.07C477.23 822.22 374.28 832.08 247.28 832.08C120.28 832.08 17.33 822.22 17.33 810.07C17.33 797.92 120.28 788.06 247.28 788.06C374.28 788.06 477.23 797.92 477.23 810.07Z"/>
        <path id="&lt;Path&gt;" class="shp22"
              d="M468.43 810.08C468.43 821.96 367.81 831.59 243.69 831.59C119.57 831.59 18.95 821.96 18.95 810.08C18.95 798.2 119.57 788.57 243.69 788.57C367.81 788.57 468.43 798.2 468.43 810.08Z"/>
        <path id="&lt;Path&gt;" class="shp23"
              d="M459.64 810.09C459.64 821.7 361.35 831.1 240.11 831.1C118.87 831.1 20.58 821.7 20.58 810.09C20.58 798.49 118.87 789.08 240.11 789.08C361.35 789.08 459.64 798.49 459.64 810.09Z"/>
        <path id="&lt;Path&gt;" class="shp24"
              d="M450.84 810.1C450.84 821.43 354.89 830.62 236.52 830.62C118.16 830.62 22.2 821.43 22.2 810.1C22.2 798.78 118.16 789.59 236.52 789.59C354.89 789.59 450.84 798.78 450.84 810.1Z"/>
        <path id="&lt;Path&gt;" class="shp25"
              d="M442.05 810.12C442.05 821.17 348.42 830.13 232.94 830.13C117.45 830.13 23.83 821.17 23.83 810.12C23.83 799.06 117.45 790.1 232.94 790.1C348.42 790.1 442.05 799.06 442.05 810.12Z"/>
        <path id="&lt;Path&gt;" class="shp25"
              d="M433.25 810.13C433.25 820.9 341.96 829.64 229.35 829.64C116.74 829.64 25.45 820.9 25.45 810.13C25.45 799.35 116.74 790.61 229.35 790.61C341.96 790.61 433.25 799.35 433.25 810.13Z"/>
        <path id="&lt;Path&gt;" class="shp26"
              d="M424.46 810.14C424.46 820.64 335.5 829.16 225.77 829.16C116.03 829.16 27.07 820.64 27.07 810.14C27.07 799.64 116.03 791.12 225.77 791.12C335.5 791.12 424.46 799.64 424.46 810.14Z"/>
        <path id="&lt;Path&gt;" class="shp27"
              d="M415.66 810.15C415.66 820.38 329.04 828.67 222.18 828.67C115.32 828.67 28.7 820.38 28.7 810.15C28.7 799.92 115.32 791.63 222.18 791.63C329.04 791.63 415.66 799.92 415.66 810.15Z"/>
        <path id="&lt;Path&gt;" class="shp28"
              d="M406.87 810.16C406.87 820.11 322.57 828.18 218.6 828.18C114.62 828.18 30.32 820.11 30.32 810.16C30.32 800.21 114.62 792.14 218.6 792.14C322.57 792.14 406.87 800.21 406.87 810.16Z"/>
        <path id="&lt;Path&gt;" class="shp29"
              d="M398.07 810.17C398.07 819.85 316.11 827.7 215.01 827.7C113.91 827.7 31.95 819.85 31.95 810.17C31.95 800.5 113.91 792.65 215.01 792.65C316.11 792.65 398.07 800.5 398.07 810.17Z"/>
        <path id="&lt;Path&gt;" class="shp30"
              d="M389.28 810.19C389.28 819.59 309.65 827.21 211.42 827.21C113.2 827.21 33.57 819.59 33.57 810.19C33.57 800.79 113.2 793.16 211.42 793.16C309.65 793.16 389.28 800.79 389.28 810.19Z"/>
        <path id="&lt;Path&gt;" class="shp31"
              d="M380.48 810.2C380.48 819.32 303.19 826.72 207.84 826.72C112.49 826.72 35.2 819.32 35.2 810.2C35.2 801.07 112.49 793.67 207.84 793.67C303.19 793.67 380.48 801.07 380.48 810.2Z"/>
        <path id="&lt;Path&gt;" class="shp32"
              d="M371.69 810.21C371.69 819.06 296.72 826.23 204.25 826.23C111.78 826.23 36.82 819.06 36.82 810.21C36.82 801.36 111.78 794.18 204.25 794.18C296.72 794.18 371.69 801.36 371.69 810.21Z"/>
        <path id="&lt;Path&gt;" class="shp33"
              d="M362.89 810.22C362.89 818.79 290.26 825.75 200.67 825.75C111.08 825.75 38.44 818.79 38.44 810.22C38.44 801.65 111.08 794.69 200.67 794.69C290.26 794.69 362.89 801.65 362.89 810.22Z"/>
        <path id="&lt;Path&gt;" class="shp34"
              d="M354.1 810.23C354.1 818.53 283.8 825.26 197.08 825.26C110.37 825.26 40.07 818.53 40.07 810.23C40.07 801.93 110.37 795.2 197.08 795.2C283.8 795.2 354.1 801.93 354.1 810.23Z"/>
        <path id="&lt;Path&gt;" class="shp35"
              d="M345.3 810.24C345.3 818.27 277.34 824.77 193.5 824.77C109.66 824.77 41.69 818.27 41.69 810.24C41.69 802.22 109.66 795.71 193.5 795.71C277.34 795.71 345.3 802.22 345.3 810.24Z"/>
        <path id="&lt;Path&gt;" class="shp36"
              d="M336.51 810.26C336.51 818 270.87 824.29 189.91 824.29C108.95 824.29 43.32 818 43.32 810.26C43.32 802.51 108.95 796.22 189.91 796.22C270.87 796.22 336.51 802.51 336.51 810.26Z"/>
        <path id="&lt;Path&gt;" class="shp37"
              d="M327.71 810.27C327.71 817.74 264.41 823.8 186.33 823.8C108.24 823.8 44.94 817.74 44.94 810.27C44.94 802.79 108.24 796.73 186.33 796.73C264.41 796.73 327.71 802.79 327.71 810.27Z"/>
        <path id="&lt;Path&gt;" class="shp38"
              d="M318.92 810.28C318.92 817.48 257.95 823.31 182.74 823.31C107.53 823.31 46.56 817.48 46.56 810.28C46.56 803.08 107.53 797.24 182.74 797.24C257.95 797.24 318.92 803.08 318.92 810.28Z"/>
        <path id="&lt;Path&gt;" class="shp39"
              d="M310.12 810.29C310.12 817.21 251.49 822.82 179.16 822.82C106.83 822.82 48.19 817.21 48.19 810.29C48.19 803.37 106.83 797.76 179.16 797.76C251.49 797.76 310.12 803.37 310.12 810.29Z"/>
        <path id="&lt;Path&gt;" class="shp40"
              d="M301.33 810.3C301.33 816.95 245.02 822.34 175.57 822.34C106.12 822.34 49.81 816.95 49.81 810.3C49.81 803.65 106.12 798.27 175.57 798.27C245.02 798.27 301.33 803.65 301.33 810.3Z"/>
        <path id="&lt;Path&gt;" class="shp41"
              d="M292.53 810.31C292.53 816.69 238.56 821.85 171.99 821.85C105.41 821.85 51.44 816.69 51.44 810.31C51.44 803.94 105.41 798.78 171.99 798.78C238.56 798.78 292.53 803.94 292.53 810.31Z"/>
        <path id="&lt;Path&gt;" class="shp42"
              d="M283.74 810.32C283.74 816.42 232.1 821.36 168.4 821.36C104.7 821.36 53.06 816.42 53.06 810.32C53.06 804.23 104.7 799.29 168.4 799.29C232.1 799.29 283.74 804.23 283.74 810.32Z"/>
        <path id="&lt;Path&gt;" class="shp43"
              d="M274.94 810.34C274.94 816.16 225.64 820.88 164.81 820.88C103.99 820.88 54.69 816.16 54.69 810.34C54.69 804.52 103.99 799.8 164.81 799.8C225.64 799.8 274.94 804.52 274.94 810.34Z"/>
        <path id="&lt;Path&gt;" class="shp44"
              d="M266.15 810.35C266.15 815.89 219.17 820.39 161.23 820.39C103.28 820.39 56.31 815.89 56.31 810.35C56.31 804.8 103.28 800.31 161.23 800.31C219.17 800.31 266.15 804.8 266.15 810.35Z"/>
        <path id="&lt;Path&gt;" class="shp45"
              d="M257.35 810.36C257.35 815.63 212.71 819.9 157.64 819.9C102.58 819.9 57.93 815.63 57.93 810.36C57.93 805.09 102.58 800.82 157.64 800.82C212.71 800.82 257.35 805.09 257.35 810.36Z"/>
        <path id="&lt;Path&gt;" class="shp46"
              d="M248.56 810.37C248.56 815.37 206.25 819.41 154.06 819.41C101.87 819.41 59.56 815.37 59.56 810.37C59.56 805.38 101.87 801.33 154.06 801.33C206.25 801.33 248.56 805.38 248.56 810.37Z"/>
        <path id="&lt;Path&gt;" class="shp47"
              d="M239.76 810.38C239.76 815.1 199.79 818.93 150.47 818.93C101.16 818.93 61.18 815.1 61.18 810.38C61.18 805.66 101.16 801.84 150.47 801.84C199.79 801.84 239.76 805.66 239.76 810.38Z"/>
        <path id="&lt;Path&gt;" class="shp48"
              d="M230.97 810.39C230.97 814.84 193.32 818.44 146.89 818.44C100.45 818.44 62.81 814.84 62.81 810.39C62.81 805.95 100.45 802.35 146.89 802.35C193.32 802.35 230.97 805.95 230.97 810.39Z"/>
        <path id="&lt;Path&gt;" class="shp49"
              d="M222.17 810.41C222.17 814.57 186.86 817.95 143.3 817.95C99.74 817.95 64.43 814.57 64.43 810.41C64.43 806.24 99.74 802.86 143.3 802.86C186.86 802.86 222.17 806.24 222.17 810.41Z"/>
        <path id="&lt;Path&gt;" class="shp50"
              d="M213.38 810.42C213.38 814.31 180.4 817.47 139.72 817.47C99.04 817.47 66.06 814.31 66.06 810.42C66.06 806.53 99.04 803.37 139.72 803.37C180.4 803.37 213.38 806.53 213.38 810.42Z"/>
        <path id="&lt;Path&gt;" class="shp51"
              d="M204.58 810.43C204.58 814.05 173.94 816.98 136.13 816.98C98.33 816.98 67.68 814.05 67.68 810.43C67.68 806.81 98.33 803.88 136.13 803.88C173.94 803.88 204.58 806.81 204.58 810.43Z"/>
        <path id="&lt;Path&gt;" class="shp52"
              d="M195.79 810.44C195.79 813.78 167.47 816.49 132.55 816.49C97.62 816.49 69.3 813.78 69.3 810.44C69.3 807.1 97.62 804.39 132.55 804.39C167.47 804.39 195.79 807.1 195.79 810.44Z"/>
        <path id="&lt;Path&gt;" class="shp53"
              d="M186.99 810.45C186.99 813.52 161.01 816.01 128.96 816.01C96.91 816.01 70.93 813.52 70.93 810.45C70.93 807.38 96.91 804.9 128.96 804.9C161.01 804.9 186.99 807.38 186.99 810.45Z"/>
        <path id="&lt;Path&gt;" class="shp54"
              d="M178.2 810.46C178.2 813.26 154.55 815.52 125.38 815.52C96.2 815.52 72.55 813.26 72.55 810.46C72.55 807.67 96.2 805.41 125.38 805.41C154.55 805.41 178.2 807.67 178.2 810.46Z"/>
        <path id="&lt;Path&gt;" class="shp55"
              d="M169.4 810.47C169.4 812.99 148.08 815.03 121.79 815.03C95.49 815.03 74.18 812.99 74.18 810.47C74.18 807.96 95.49 805.92 121.79 805.92C148.08 805.92 169.4 807.96 169.4 810.47Z"/>
        <path id="&lt;Path&gt;" class="shp56"
              d="M160.61 810.49C160.61 812.73 141.62 814.54 118.2 814.54C94.79 814.54 75.8 812.73 75.8 810.49C75.8 808.25 94.79 806.43 118.2 806.43C141.62 806.43 160.61 808.25 160.61 810.49Z"/>
        <path id="&lt;Path&gt;" class="shp57"
              d="M151.81 810.5C151.81 812.46 135.16 814.06 114.62 814.06C94.08 814.06 77.42 812.46 77.42 810.5C77.42 808.53 94.08 806.94 114.62 806.94C135.16 806.94 151.81 808.53 151.81 810.5Z"/>
        <path id="&lt;Path&gt;" class="shp58"
              d="M143.02 810.51C143.02 812.2 128.7 813.57 111.03 813.57C93.37 813.57 79.05 812.2 79.05 810.51C79.05 808.82 93.37 807.45 111.03 807.45C128.7 807.45 143.02 808.82 143.02 810.51Z"/>
    </g>
</svg>