<svg version="1.2" baseProfile="tiny-ps" xmlns="http://www.w3.org/2000/svg" viewBox="0 0 3916 1910" width="1230"
     height="600">
    <title>electric-car-loading</title>
    <defs>
        <clipPath id="cp1">
            <path d="M1782.21 603.98C1793.16 605.87 1802.09 618.48 1796.93 634.99C1789.77 657.9 1773.88 661.28 1759.45 659.48C1745.03 657.69 1706.22 650.81 1701.24 657.18C1699.43 659.49 1689.85 685.36 1673.9 705.64C1668.09 713.02 1642.18 740.14 1638.27 742.28C1634.36 744.41 1625.11 745.12 1621.2 742.28C1617.28 739.43 1621.2 699.95 1647.16 659.04C1673.13 618.13 1676.69 616.87 1677.76 611.63C1678.82 606.39 1668.86 594.97 1692.29 595C1702.27 595.02 1752.52 598.86 1782.21 603.98Z"/>
        </clipPath>
        <clipPath id="cp2">
            <path d="M214.15 546.21C207.76 544.21 199.52 548.51 197.74 558.77C195.28 573 202.86 579.17 211.08 582.18C219.29 585.18 230.63 592.17 231.54 596.95C231.87 598.68 233.13 615.16 236.1 630.4C237.18 635.95 243.6 657.6 245.11 659.82C246.62 662.04 251.37 664.96 254.25 664.51C257.13 664.06 265.89 641.84 263.23 612.8C260.56 583.76 259 582.11 259.87 579.01C260.74 575.91 269.21 572.53 256.66 566.11C251.31 563.37 231.45 551.62 214.15 546.21Z"/>
        </clipPath>
    </defs>
    <style>
        tspan { white-space:pre }
        .shp0 { opacity: 0.349;fill: #0c1b24 }
        .shp1 { fill: #5b6f80 }
        .shp2 { fill: #f1f1f2 }
        .shp3 { fill: #ff1c4b }
        .shp4 { fill: #0c2635 }
        .shp5 { fill: #29ff73 }
        .shp6 { fill: #000000 }
        .shp7 { fill: #000f1f }
        .shp8 { fill: #231f20 }
        .shp9 { opacity: 0.212;fill: #0c1b24 }
        .shp10 { fill: #a6b3c6 }
        .shp11 { fill: #f0f2f8 }
        .shp12 { fill: #e5e7eb }
        .shp13 { fill: #6c8094 }
        .shp14 { opacity: 0.102;fill: #231f20 }
        .shp15 { fill: #0b486b }
        .shp16 { fill: #ffffff }
        .shp17 { opacity: 0.2;fill: #ffffff }
        .shp18 { opacity: 0.4;fill: #ffffff }
        .shp19 { fill: none;stroke: #404041;stroke-linejoin:round;stroke-width: 3.042 }
        .shp20 { fill: none;stroke: #404041;stroke-linecap:round;stroke-linejoin:round;stroke-width: 3.042 }
        .shp21 { opacity: 0.102;fill: #0c1b24 }
        .shp22 { fill: #e6e7e8 }
        .shp23 { fill: #bbbdbf }
        .shp24 { fill: #0c1b24 }
        .shp25 { fill: #1d3439 }
        .shp26 { fill: none;stroke: #29ff73;stroke-linecap:round;stroke-width: 9.143 }
    </style>
    <g id="wallbox">
        <g id="&lt;Group&gt;">
            <g id="&lt;Group&gt;">
                <g id="&lt;Group&gt;" style="opacity: 0.349">
                    <path id="&lt;Path&gt;" class="shp0"
                          d="M86.03 734.87L86.03 734.87C38.84 734.87 0.59 696.61 0.59 649.42L0.59 366.26C0.59 319.07 38.84 280.82 86.03 280.82L86.03 280.82C133.22 280.82 171.48 319.07 171.48 366.26L171.48 649.42C171.48 696.61 133.22 734.87 86.03 734.87Z"/>
                </g>
                <path id="&lt;Path&gt;" class="shp1"
                      d="M119.13 661.54L197.26 661.54L197.26 276.29L119.13 276.29L119.13 661.54Z"/>
                <path id="&lt;Path&gt;" class="shp1"
                      d="M119.13 661.54L119.13 661.54C79.09 661.54 46.63 629.08 46.63 589.04L46.63 348.79C46.63 308.75 79.09 276.29 119.13 276.29L119.13 276.29C159.17 276.29 191.63 308.75 191.63 348.79L191.63 589.04C191.63 629.08 159.17 661.54 119.13 661.54Z"/>
                <path id="&lt;Path&gt;" class="shp2"
                      d="M197.26 661.54L197.26 661.54C157.22 661.54 124.76 629.08 124.76 589.04L124.76 348.79C124.76 308.75 157.22 276.29 197.26 276.29L197.26 276.29C237.3 276.29 269.76 308.75 269.76 348.79L269.76 589.04C269.76 629.08 237.3 661.54 197.26 661.54Z"/>
                <path id="&lt;Path&gt;" class="shp3"
                      d="M198.41 319.49L209.81 319.5L192.6 352.34L197.44 327.01L185.67 327.14L203.03 296.06L198.41 319.49Z"/>
                <g id="&lt;Group&gt;">
                    <path id="&lt;Path&gt;" class="shp4"
                          d="M198.42 477.1C190.46 477.1 184.02 470.65 184.02 462.7L184.02 382.22C184.02 374.26 190.46 367.81 198.42 367.81C206.37 367.81 212.82 374.26 212.82 382.22L212.82 462.7C212.82 470.65 206.37 477.1 198.42 477.1Z"/>
                    <g id="&lt;Group&gt;">
                        <path id="&lt;Path&gt;" class="shp5"
                              d="M194.4 390.35C194.33 393.95 196.43 396.9 199.09 396.96C201.75 397.01 203.97 394.14 204.04 390.55C204.11 386.95 202.01 384 199.35 383.95C196.69 383.89 194.47 386.76 194.4 390.35Z"/>
                        <path id="&lt;Path&gt;" class="shp5"
                              d="M194.4 412.99C194.33 416.58 196.43 419.53 199.09 419.59C201.75 419.64 203.97 416.77 204.04 413.18C204.11 409.59 202.01 406.63 199.35 406.58C196.69 406.53 194.47 409.39 194.4 412.99Z"/>
                        <path id="&lt;Path&gt;" class="shp5"
                              d="M194.4 435.62C194.33 439.21 196.43 442.17 199.09 442.22C201.75 442.27 203.97 439.4 204.04 435.81C204.11 432.22 202.01 429.26 199.35 429.21C196.69 429.16 194.47 432.03 194.4 435.62Z"/>
                        <path id="&lt;Path&gt;" class="shp5"
                              d="M194.4 458.25C194.33 461.84 196.43 464.8 199.09 464.85C201.75 464.9 203.97 462.03 204.04 458.44C204.11 454.85 202.01 451.89 199.35 451.84C196.69 451.79 194.47 454.66 194.4 458.25Z"/>
                    </g>
                </g>
            </g>
            <path id="&lt;Path&gt;" class="shp6"
                  d="M152.81 562.19C152.09 598.21 173.15 627.84 199.84 628.37C226.52 628.91 248.74 600.14 249.46 564.12C250.18 528.1 229.13 498.47 202.44 497.94C175.75 497.4 153.53 526.17 152.81 562.19Z"/>
            <path id="&lt;Path&gt;" class="shp4"
                  d="M163.3 562.4C162.73 590.6 179.22 613.81 200.12 614.22C221.02 614.64 238.42 592.12 238.98 563.91C239.54 535.71 223.06 512.5 202.16 512.08C181.26 511.67 163.86 534.19 163.3 562.4Z"/>
            <g id="&lt;Group&gt;">
                <path id="&lt;Path&gt;" class="shp6"
                      d="M181.49 562.52C181.19 577.57 189.98 589.94 201.13 590.16C212.27 590.39 221.55 578.37 221.85 563.33C222.15 548.29 213.36 535.91 202.22 535.69C191.07 535.47 181.79 547.48 181.49 562.52Z"/>
                <path id="&lt;Path&gt;" class="shp5"
                      d="M188.71 562.83C188.41 577.87 197.2 590.24 208.35 590.47C219.5 590.69 228.77 578.68 229.07 563.63C229.38 548.59 220.58 536.22 209.44 536C198.29 535.77 189.01 547.79 188.71 562.83Z"/>
                <path id="&lt;Path&gt;" class="shp7"
                      d="M192.58 562.9C192.33 575.61 199.76 586.06 209.17 586.25C218.59 586.44 226.43 576.29 226.68 563.58C226.94 550.87 219.51 540.42 210.09 540.23C200.68 540.04 192.84 550.19 192.58 562.9Z"/>
                <path id="&lt;Path&gt;" class="shp8"
                      d="M195.14 562.8C194.92 573.93 201.42 583.09 209.67 583.26C217.92 583.42 224.79 574.53 225.01 563.39C225.24 552.26 218.73 543.1 210.48 542.94C202.23 542.77 195.36 551.66 195.14 562.8Z"/>
            </g>
        </g>
    </g>
    <g id="car">
        <g id="&lt;Group&gt;">
            <path id="&lt;Path&gt;" class="shp9"
                  d="M449.21 1388.72C386.98 1393.58 432.22 1416.76 483.86 1434.74C729.25 1520.2 1480.09 1731.6 1789.96 1807.89C2142.17 1894.59 2345.77 1909.44 2638.07 1909.44C2930.38 1909.44 3748.48 1761.08 3881.28 1738.58C4014.06 1716.08 3747.27 1640.55 3401.67 1580.33C3144.78 1535.56 2516.02 1449.19 1515.39 1321.21C867.49 1361.3 512.09 1383.8 449.21 1388.72Z"/>
            <path id="&lt;Path&gt;" class="shp7"
                  d="M541.54 1413.31C534.93 1414.12 526.68 1419.75 569.53 1431.26C799.89 1493.13 1419.65 1637.98 1655.72 1690.87C1943.02 1755.24 2148.75 1761.32 2386 1761.32C2623.28 1761.32 3382.43 1707.72 3490.21 1689.46C3597.99 1671.19 3336.27 1577.33 3052.78 1550.69C2863.79 1532.93 2353.43 1462.82 1521.7 1340.37C892.98 1385.95 566.26 1410.27 541.54 1413.31Z"/>
            <g id="&lt;Group&gt;">
                <path id="&lt;Path&gt;" class="shp7"
                      d="M539.34 1125.03L828.33 1263.97L1473.64 1349.78L1960.37 1373.94L2718.65 1336.08L2497.77 766.38L639.93 817.79C587.39 857.85 554.82 902.36 542.23 951.33C529.63 1000.29 528.67 1058.2 539.34 1125.03Z"/>
                <g id="&lt;Group&gt;">
                    <path id="&lt;Path&gt;" class="shp4"
                          d="M1997.48 1308.06C1997.48 1501.26 1928.6 1657.89 1843.64 1657.89C1758.67 1657.89 1689.79 1501.26 1689.79 1308.06C1689.79 1114.85 1758.67 958.22 1843.64 958.22C1928.6 958.22 1997.48 1114.85 1997.48 1308.06Z"/>
                    <path id="&lt;Path&gt;" class="shp4"
                          d="M1843.64 958.22L1650.33 958.22L1646.68 1666.52L1843.64 1657.89L1843.64 958.22Z"/>
                    <path id="&lt;Path&gt;" class="shp4"
                          d="M1806.5 1312.37C1806.5 1507.96 1734.95 1666.52 1646.68 1666.52C1558.41 1666.52 1486.86 1507.96 1486.86 1312.37C1486.86 1116.78 1558.41 958.22 1646.68 958.22C1734.95 958.22 1806.5 1116.78 1806.5 1312.37Z"/>
                    <path id="&lt;Path&gt;" class="shp1"
                          d="M1754.18 1312.37C1754.18 1462.12 1701.44 1583.53 1636.39 1583.53C1571.35 1583.53 1518.6 1462.12 1518.6 1312.37C1518.6 1162.62 1571.35 1041.22 1636.39 1041.22C1701.44 1041.22 1754.18 1162.62 1754.18 1312.37Z"/>
                    <path id="&lt;Path&gt;" class="shp7"
                          d="M1737.55 1312.37C1737.55 1447.19 1691.12 1556.48 1633.86 1556.48C1576.6 1556.48 1530.18 1447.19 1530.18 1312.37C1530.18 1177.55 1576.6 1068.27 1633.86 1068.27C1691.12 1068.27 1737.55 1177.55 1737.55 1312.37Z"/>
                    <path id="&lt;Path&gt;" class="shp1"
                          d="M1619.55 1049.77L1640.45 1270.66L1533.92 1190.65L1525.75 1237.43L1636.39 1321.51L1547.08 1471.65L1560.77 1512.68L1653.63 1358.26L1689.79 1547.64L1709.4 1513.53L1675.2 1321L1749.95 1266.42L1743.77 1211.16L1670.89 1267L1650.33 1046.92L1619.55 1049.77Z"/>
                    <path id="&lt;Path&gt;" class="shp1"
                          d="M1687.71 1312.37C1687.71 1355.7 1672.45 1390.83 1653.63 1390.83C1634.81 1390.83 1619.55 1355.7 1619.55 1312.37C1619.55 1269.04 1634.81 1233.92 1653.63 1233.92C1672.45 1233.92 1687.71 1269.04 1687.71 1312.37Z"/>
                    <path id="&lt;Path&gt;" class="shp4"
                          d="M1682.82 1312.37C1682.82 1333.02 1675.55 1349.78 1666.58 1349.78C1657.6 1349.78 1650.33 1333.02 1650.33 1312.37C1650.33 1291.72 1657.6 1274.97 1666.58 1274.97C1675.55 1274.97 1682.82 1291.72 1682.82 1312.37Z"/>
                </g>
                <g id="&lt;Group&gt;">
                    <path id="&lt;Path&gt;" class="shp4"
                          d="M889.57 1163.61C889.57 1309.75 842.37 1428.21 784.17 1428.21C725.98 1428.21 678.79 1309.75 678.79 1163.61C678.79 1017.47 725.98 899.01 784.17 899.01C842.37 899.01 889.57 1017.47 889.57 1163.61Z"/>
                    <path id="&lt;Path&gt;" class="shp4"
                          d="M784.17 899.01L651.76 899.01L649.26 1434.74L784.17 1428.21L784.17 899.01Z"/>
                    <path id="&lt;Path&gt;" class="shp4"
                          d="M758.74 1166.88C758.74 1314.8 709.72 1434.74 649.26 1434.74C588.79 1434.74 539.77 1314.8 539.77 1166.88C539.77 1018.94 588.79 899.01 649.26 899.01C709.72 899.01 758.74 1018.94 758.74 1166.88Z"/>
                    <path id="&lt;Path&gt;" class="shp1"
                          d="M722.9 1166.88C722.9 1280.13 686.76 1371.96 642.21 1371.96C597.64 1371.96 561.51 1280.13 561.51 1166.88C561.51 1053.6 597.64 961.78 642.21 961.78C686.76 961.78 722.9 1053.6 722.9 1166.88Z"/>
                    <path id="&lt;Path&gt;" class="shp7"
                          d="M711.5 1166.88C711.5 1268.85 679.7 1351.5 640.47 1351.5C601.24 1351.5 569.44 1268.85 569.44 1166.88C569.44 1064.91 601.24 982.25 640.47 982.25C679.7 982.25 711.5 1064.91 711.5 1166.88Z"/>
                    <path id="&lt;Path&gt;" class="shp1"
                          d="M630.67 968.25L644.99 1135.33L572.01 1074.81L566.42 1110.19L642.21 1173.78L581.02 1287.35L590.41 1318.37L654.01 1201.59L678.79 1344.82L692.22 1319.01L668.78 1173.4L720 1132.11L715.76 1090.32L665.83 1132.56L651.76 966.11L630.67 968.25Z"/>
                    <path id="&lt;Path&gt;" class="shp1"
                          d="M677.37 1166.88C677.37 1199.65 666.9 1226.22 654.01 1226.22C641.12 1226.22 630.67 1199.65 630.67 1166.88C630.67 1134.1 641.12 1107.53 654.01 1107.53C666.9 1107.53 677.37 1134.1 677.37 1166.88Z"/>
                    <path id="&lt;Path&gt;" class="shp4"
                          d="M674.01 1166.88C674.01 1182.5 669.03 1195.16 662.88 1195.16C656.74 1195.16 651.76 1182.5 651.76 1166.88C651.76 1151.25 656.74 1138.58 662.88 1138.58C669.03 1138.58 674.01 1151.25 674.01 1166.88Z"/>
                </g>
                <g id="&lt;Group&gt;">
                    <path id="&lt;Path&gt;" class="shp4"
                          d="M3353.33 1261.76C3353.33 1438.11 3277.88 1581.05 3184.83 1581.05C3091.78 1581.05 3016.33 1438.11 3016.33 1261.76C3016.33 1085.41 3091.78 942.47 3184.83 942.47C3277.88 942.47 3353.33 1085.41 3353.33 1261.76Z"/>
                    <path id="&lt;Path&gt;" class="shp4"
                          d="M3184.83 942.47L2973.12 942.47L2969.12 1588.93L3184.83 1581.05L3184.83 942.47Z"/>
                    <path id="&lt;Path&gt;" class="shp4"
                          d="M3144.17 1265.7C3144.17 1444.2 3065.8 1588.93 2969.12 1588.93C2872.45 1588.93 2794.07 1444.2 2794.07 1265.7C2794.07 1087.19 2872.45 942.47 2969.12 942.47C3065.8 942.47 3144.17 1087.19 3144.17 1265.7Z"/>
                    <path id="&lt;Path&gt;" class="shp1"
                          d="M3086.86 1265.7C3086.86 1402.38 3029.09 1513.18 2957.86 1513.18C2886.59 1513.18 2828.83 1402.38 2828.83 1265.7C2828.83 1129.02 2886.59 1018.23 2957.86 1018.23C3029.09 1018.23 3086.86 1129.02 3086.86 1265.7Z"/>
                    <path id="&lt;Path&gt;" class="shp4"
                          d="M3068.64 1265.7C3068.64 1388.74 3017.78 1488.49 2955.08 1488.49C2892.35 1488.49 2841.51 1388.74 2841.51 1265.7C2841.51 1142.66 2892.35 1042.91 2955.08 1042.91C3017.78 1042.91 3068.64 1142.66 3068.64 1265.7Z"/>
                    <path id="&lt;Path&gt;" class="shp1"
                          d="M2939.41 1026.03L2962.29 1227.63L2845.62 1154.61L2836.67 1197.31L2957.86 1274.04L2860.02 1411.08L2875.03 1448.51L2976.72 1307.59L3016.33 1480.42L3037.81 1449.29L3000.35 1273.58L3082.22 1223.75L3075.46 1173.32L2995.63 1224.29L2973.12 1023.44L2939.41 1026.03Z"/>
                    <path id="&lt;Path&gt;" class="shp10"
                          d="M3014.06 1265.7C3014.06 1305.26 2997.34 1337.31 2976.72 1337.31C2956.12 1337.31 2939.41 1305.26 2939.41 1265.7C2939.41 1226.15 2956.12 1194.09 2976.72 1194.09C2997.34 1194.09 3014.06 1226.15 3014.06 1265.7Z"/>
                    <path id="&lt;Path&gt;" class="shp11"
                          d="M3008.7 1265.7C3008.7 1284.56 3000.74 1299.83 2990.9 1299.83C2981.07 1299.83 2973.12 1284.56 2973.12 1265.7C2973.12 1246.85 2981.07 1231.56 2990.9 1231.56C3000.74 1231.56 3008.7 1246.85 3008.7 1265.7Z"/>
                </g>
                <path id="&lt;Path&gt;" class="shp12"
                      d="M539.34 1125.03L538.73 1063.29C554.06 933.42 587.8 864.52 639.93 856.58C734.9 842.12 768.05 960.44 781.66 1050.35C795.27 1140.24 812.44 1267.54 861.17 1274.97C966.01 1290.96 1086.68 1307.04 1196.19 1317.32C1269.2 1324.17 1361.68 1334.99 1473.64 1349.78C1461.47 1329.2 1454.38 1299.28 1452.35 1260C1449.31 1201.09 1420.91 860.38 1637.85 841.62C1804.64 827.2 1856.94 1058.04 1878.23 1156.94C1899.53 1255.84 1927.78 1355.54 1960.37 1373.94C1992.96 1392.33 2155.35 1393.58 2289.19 1386.36C2423.04 1379.14 3260.01 1346.35 3344.83 1336.08C3429.65 1325.81 3508.75 1295.81 3533.09 1196.73C3557.42 1097.66 3593.93 963.81 3566.55 915.13C3548.29 882.68 3509.07 739.16 3448.88 484.56L3475.56 426.62C3421.92 391.44 3385.49 366.85 3366.29 352.85C3275.56 286.68 2950.12 164.03 2868.91 122.32C2704.07 37.66 2677.83 22.11 2444.95 11.99C2212.09 1.87 1977.61 4.2 1745.16 20.21C1518.13 35.86 1255.63 149.53 1130.91 262.09C1047.76 337.13 940.72 460.44 809.81 632.01C724.06 663.25 663.44 694.75 627.95 726.53C574.71 774.19 562.85 797.52 549.41 850.37C513.48 991.61 518.99 1050.35 539.34 1125.03Z"/>
                <path id="&lt;Path&gt;" class="shp13"
                      d="M833.97 627.7C1314.72 481.4 1607.07 394.48 1711.04 366.94C1863.39 326.58 1903.78 297.36 1839.7 237.75C1708.89 116.07 1632.84 82.6 1481.78 111.76C1359.76 135.31 1221.78 193.54 1132.43 275.49C1054.76 346.74 955.27 464.14 833.97 627.7Z"/>
                <path id="&lt;Compound Path&gt;" fill-rule="evenodd" class="shp4"
                      d="M1711.04 366.94C1607.07 394.48 1314.72 481.4 833.97 627.7C955.27 464.14 1054.76 346.74 1132.43 275.49C1221.78 193.54 1359.76 135.31 1481.78 111.76C1515.42 105.26 1545.33 101.88 1572.96 101.88C1669.42 101.88 1738.02 143.16 1839.7 237.75C1903.78 297.36 1863.39 326.58 1711.04 366.94ZM1823.12 255.57C1717.86 157.65 1657.07 126.22 1572.96 126.22C1547.61 126.22 1519.3 129.3 1486.4 135.65C1357.1 160.61 1227.77 221.06 1148.88 293.42C1070.42 365.4 960.12 503.41 898.92 582.54C1085.72 525.89 1579.57 376.6 1704.8 343.42C1755.95 329.87 1790.53 318.57 1813.63 307.84C1841.48 294.92 1844.3 286.49 1844.54 285.58C1844.62 285.24 1846.32 277.15 1823.12 255.57Z"/>
                <path id="&lt;Path&gt;" class="shp4"
                      d="M833.97 627.7C1314.72 481.4 1607.07 394.48 1711.04 366.94C1863.39 326.58 1903.78 297.36 1839.7 237.75C1595.32 227.85 1453.33 265.6 1309.37 319.85C1072.09 409.28 913.62 511.89 833.97 627.7Z"/>
                <path id="&lt;Path&gt;" class="shp14"
                      d="M742 756.95C1204.18 640.15 1519.04 561.06 1686.58 519.67C1945.16 455.78 2051.86 410.48 2285.78 401.52C2511.03 392.89 2815.03 391.6 2997.05 398.3C3162.31 404.39 3321.81 413.83 3475.56 426.62L3448.88 484.56C3290.59 469.72 3132.53 459.16 2974.72 452.88C2738.01 443.46 2252.39 442.6 2096.82 467.21C1993.72 483.52 1560.17 585.25 796.17 772.4L808.05 904.45C789.74 838.76 767.26 791.68 742 756.95Z"/>
                <g id="&lt;Group&gt;">
                    <path id="&lt;Path&gt;" class="shp15"
                          d="M2599.66 568.34L2760.41 455.68C2534.06 448.62 2329.23 454.49 2145.93 473.29C2022.19 485.98 1956.27 569.04 1883.55 665.63C2009.52 620.8 2248.23 588.37 2599.66 568.34Z"/>
                    <path id="&lt;Path&gt;" class="shp15"
                          d="M3114.35 465.81L3255.27 576.97C3364.21 593.02 3426.64 603.48 3481.41 618.08L3448.88 484.56C3431.22 484.12 3400.53 482.24 3356.81 478.92C3277.33 472.89 3196.51 468.52 3114.35 465.81Z"/>
                    <path id="&lt;Path&gt;" class="shp15"
                          d="M2599.66 568.34C2742.78 562.37 2867.71 560.43 2974.47 562.53C3074.92 564.5 3168.52 569.31 3255.27 576.97L3114.35 465.81C3071.61 462.82 3019.44 460.42 2957.84 458.63C2896.25 456.83 2830.43 455.85 2760.41 455.68L2599.66 568.34Z"/>
                </g>
                <path id="&lt;Path&gt;" class="shp16"
                      d="M2737.59 716.39L3186.17 716.39L3161.71 600.83L2718.65 592.68L2737.59 716.39Z"/>
                <path id="&lt;Path&gt;" class="shp17"
                      d="M1145.51 1170C1276.42 1170 1455.39 1196.39 1418.88 1215.47C1382.38 1234.55 1174.51 1229.86 1074.12 1227.45C973.73 1225.05 783.67 1211.44 861.18 1196.73C949.3 1180.01 1045.41 1170 1145.51 1170Z"/>
                <path id="&lt;Path&gt;" class="shp13"
                      d="M3366.29 352.85C3246.21 345.1 3104.79 338.17 2942.03 332.06C2668.35 321.79 2413.45 317.83 2230.94 319.85C2074.55 199.94 1883.55 11.59 1745.16 20.21C1982 3.05 2167.3 -3.1 2301.06 1.77C2487.69 8.55 2603.63 19.56 2667.43 26.82C2845.58 47.11 3048.62 167.57 3366.29 352.85Z"/>
                <path id="&lt;Compound Path&gt;" fill-rule="evenodd" class="shp13"
                      d="M3366.29 352.85C3246.21 345.1 3104.79 338.17 2942.03 332.06C2714.42 323.52 2499.8 319.34 2329 319.34C2294.43 319.34 2261.66 319.51 2230.94 319.85C2078.04 202.61 1892.01 19.96 1754.46 19.93C1751.32 19.93 1748.24 20.03 1745.16 20.21C1926.86 7.05 2085.2 0.47 2220.18 0.47C2248.88 0.47 2276.15 0.86 2301.06 1.77C2487.69 8.55 2603.63 19.56 2667.43 26.82C2845.58 47.11 3048.62 167.57 3366.29 352.85ZM2942.95 307.74C3075.27 312.71 3189.53 318.45 3266.15 322.64C3002.28 169.12 2820.92 68.79 2664.68 51C2564.83 39.64 2442.19 31.26 2300.18 26.09C2276.7 25.24 2249.79 24.8 2220.18 24.8C2113.52 24.8 1986.21 30.39 1890.51 35.61C1972.91 78.6 2060.28 150.22 2145.8 220.32C2178.34 246.98 2209.2 272.27 2239.11 295.43C2267.41 295.14 2297.6 295 2329 295C2506 295 2724.05 299.53 2942.95 307.74Z"/>
                <path id="&lt;Path&gt;" class="shp18"
                      d="M2599.66 568.34L2715.9 728.92C2720.34 735.06 2727.45 738.69 2735.03 738.69L3187.2 738.69C3197.52 738.69 3206.64 731.99 3209.73 722.14L3255.27 576.96L3161.71 600.82L2722.38 592.68L2599.66 568.34Z"/>
                <path id="&lt;Path&gt;" class="shp14"
                      d="M3161.71 600.83L3255.27 576.97C3179.34 563.63 3085.75 555.27 2974.47 551.88C2863.19 548.49 2738.25 553.98 2599.66 568.34L2718.65 592.68L3161.71 600.83Z"/>
                <g id="&lt;Group&gt;">
                    <path id="&lt;Path&gt;" class="shp4"
                          d="M1958.35 1387.67C1939.22 1365.24 1924.68 1341.38 1917.58 1302.68C2129.52 1295.71 2241.13 1286.47 2252.4 1274.97C2306.64 1219.58 2343.59 1191.86 2370.02 1174.72C2398.89 1156 2464.31 1145.32 2540.36 1142.27C2616.42 1139.23 3381.96 1113.09 3448.88 1116.14C3515.81 1119.18 3503.68 1244.69 3503.68 1265.99C3503.68 1287.28 3430.17 1331.45 3366.29 1340.76C3186.17 1367.02 2635.68 1389.69 2495.74 1395.78C2402.46 1399.83 2223.33 1397.13 1958.35 1387.67Z"/>
                    <path id="&lt;Path&gt;" class="shp4"
                          d="M822.18 1233.92C925.42 1246.82 1025.33 1256.95 1121.91 1264.32C1218.49 1271.69 1329.03 1275.24 1453.52 1274.97C1462.57 1310.97 1467.92 1330.96 1469.58 1334.94C1472.97 1343.06 1479.05 1348.13 1487.84 1350.15L1488.85 1371.44C1309.37 1342.67 1187.05 1324.41 1121.91 1316.68C899.71 1290.32 859.35 1309.11 844.95 1294.38C835.35 1284.55 827.76 1264.4 822.18 1233.92Z"/>
                </g>
                <g id="&lt;Group&gt;">
                    <path id="&lt;Path&gt;" class="shp19"
                          d="M1749.92 876.45C1802.17 795.19 1847.75 724.19 1886.67 663.47"/>
                    <path id="&lt;Path&gt;" class="shp19"
                          d="M2230.94 319.85L2307.34 401.52L2279.99 463.52C2288.51 659.14 2295.53 783.73 2301.06 837.31C2307 894.82 2319.39 944.13 2407.55 944.13C2760.41 944.16 3306.91 938.45 3422.13 930.34C3477.31 926.45 3481.37 888.81 3478.33 827.97C3476.3 787.4 3457.79 671.23 3422.8 479.44L3437.71 421.08L3366.29 352.85"/>
                    <path id="&lt;Path&gt;" class="shp20"
                          d="M1686.6 127.3L1703.91 368.85L1653.63 527.7L1646.68 592.51L1555.78 868.26"/>
                    <path id="&lt;Path&gt;" class="shp20"
                          d="M878.15 1299.3L842.59 1236.35L842.59 1196.73C818.36 1004.92 804.61 883.68 801.35 833C798.49 788.59 795.41 759.02 792.1 744.29L833.97 627.7"/>
                    <path id="&lt;Path&gt;" class="shp19"
                          d="M1351.47 148.45L1200.96 516.74L1163.35 650.69L1164.87 716.89C1147.64 845 1140.03 934.4 1142.06 985.1C1145.1 1061.16 1153.22 1172.29 1144.09 1196.73C1138.01 1213.03 1130.61 1223.4 1121.91 1227.85C1117.8 1234.96 1119.44 1250.66 1126.85 1274.97C1134.25 1299.28 1138.6 1313.93 1139.88 1318.92"/>
                </g>
                <path id="&lt;Path&gt;" class="shp17"
                      d="M3448.88 484.56L3332.91 477.18C3357.6 617.12 3374.98 704.29 3385.03 738.69C3428.14 886.23 3517.87 793.45 3552.35 878.8C3526.66 795.2 3492.17 663.79 3448.88 484.56Z"/>
                <path id="&lt;Path&gt;" class="shp21"
                      d="M3387.06 899.91C3384.5 861.39 3366.45 720.48 3332.91 477.18C2967.96 457.42 2704.91 447.27 2279.99 463.52C2291.33 703.92 2301.98 846.44 2311.92 891.06C2326.83 958 2416.64 949.78 2408.53 1014.74C2400.42 1079.71 2374.06 1214.88 2345.67 1256.59C2317.28 1298.31 2227.81 1374.32 2108.78 1373.68C2029.43 1373.25 1979.96 1373.34 1960.37 1373.94L1989.43 1388.72C2085.55 1391.89 2379.47 1400.83 2495.74 1395.78C2635.68 1389.69 3186.17 1367.02 3366.29 1340.76C3386.05 1337.88 3406.73 1331.64 3425.87 1323.8C3488.9 1287.38 3497.6 1098.68 3497.6 1014.74C3497.6 954.43 3390.92 957.69 3387.06 899.91Z"/>
                <path id="&lt;Path&gt;" class="shp21"
                      d="M2163.03 941.16C2138.29 811.01 2117.34 686.73 2054.72 646.63C2000.07 611.63 1761.16 653.85 1671.51 674.4C1644.36 680.48 1366.82 756.7 838.91 903.05C844.4 917.67 852.33 952.73 862.71 1008.23C868.97 1041.83 876.04 1092.5 880.68 1127.51C883.76 1150.73 894 1166.55 905.48 1165.88L1371.09 1166.28C1390.28 1165.15 1407.64 1142.13 1416.35 1106.25C1426.13 1065.9 1438.76 985.49 1452.74 941.16C1486.31 834.74 1550.4 773.96 1613.95 757.39C1737.16 725.26 1866.83 784.08 1965.31 1012.57C1974.14 1033.08 1981.68 1053.13 1988.06 1071.89C1997.15 1098.66 2029.45 1256.13 2054.72 1255.38C2079.98 1254.63 2193.54 1167.54 2190.41 1077.84C2188.96 1035.84 2178.66 1023.34 2163.03 941.16Z"/>
                <path id="&lt;Path&gt;" class="shp4"
                      d="M3001.37 500.5C3005.77 517.44 2997.29 534.29 2982.43 538.16C2967.57 542.02 2951.96 531.42 2947.56 514.48C2943.16 497.55 2951.65 480.7 2966.5 476.84C2981.36 472.98 2996.98 483.57 3001.37 500.5Z"/>
                <path id="&lt;Path&gt;" class="shp17"
                      d="M3024.55 914.37C3360.38 915.74 3478.26 915.62 3550.08 929.67C3643.94 948.03 3291.01 968.1 3033.31 969.73C2595.35 972.48 2331.03 977.84 2236.62 945.44C2132.48 909.7 2729.85 913.18 3024.55 914.37Z"/>
                <path id="&lt;Path&gt;" class="shp17"
                      d="M2285.78 401.52C2435.94 395.77 2832.54 404.14 3475.56 426.62L3366.29 352.85C3084.07 337.94 2906.37 329.75 2833.19 328.28C2682.07 325.23 2222.24 307.74 2097.81 328.77C2013.6 343.01 1556.93 468 1406.73 507.5C1269.45 543.59 899.01 647.19 698.71 716.89C635.57 738.86 594.54 761.08 575.62 783.55C660.19 746.55 715.65 737.68 742 756.95C1204.18 640.15 1519.04 561.06 1686.58 519.67C1945.16 455.78 2051.86 410.48 2285.78 401.52Z"/>
                <g id="&lt;Group&gt;">
                    <path id="&lt;Path&gt;" class="shp7"
                          d="M1672.32 462.36L1549.78 493.39L1556.11 468.6L1678.65 437.57L1672.32 462.36Z"/>
                    <path id="&lt;Path&gt;" class="shp4"
                          d="M1671.52 458.35L1548.99 489.39L1555.32 464.6L1677.86 433.55L1671.52 458.35Z"/>
                </g>
                <g id="&lt;Group&gt;">
                    <path id="&lt;Path&gt;" class="shp7"
                          d="M1177.22 593.95L1077.88 621.32L1082.93 599.72L1182.27 572.35L1177.22 593.95Z"/>
                    <path id="&lt;Path&gt;" class="shp4"
                          d="M1176.46 590.49L1077.13 617.86L1082.17 596.27L1181.51 568.89L1176.46 590.49Z"/>
                </g>
                <path id="&lt;Path&gt;" class="shp12"
                      d="M863.28 522.39C866.11 515.13 865.13 506.93 860.65 500.55C856.17 494.17 848.79 490.46 841 490.66C795.86 491.81 720.98 495.47 704.25 507.21C686.58 519.61 646.82 551.55 674.01 571.64C692.14 585.04 735.69 596.42 804.64 605.79L842.59 646.96C857.23 650.38 866.89 645.76 871.57 633.11C876.24 620.46 865.93 602.86 840.63 580.33L863.28 522.39Z"/>
                <path id="&lt;Path&gt;" class="shp14"
                      d="M857.96 519.89C860.17 514.48 859.54 508.33 856.27 503.49C853 498.65 847.53 495.76 841.68 495.79C801.28 495.99 726.37 498.05 708.82 510.37C691.15 522.76 651.59 551.59 678.79 571.69C696.92 585.08 738.87 596.45 804.64 605.79L842.59 646.96C857.23 650.38 866.89 645.76 871.57 633.11C854.83 620.74 839.88 608.48 826.69 596.31L857.96 519.89Z"/>
                <path id="&lt;Path&gt;" class="shp4"
                      d="M818.04 593.12L851.54 517.42C853.2 513.66 852.84 509.32 850.59 505.89C848.34 502.45 844.5 500.4 840.39 500.43C804.63 500.67 728.02 503.02 706.49 518.39C678.11 538.68 661.67 564.53 706.49 574.36C741.32 582 778.51 588.26 818.04 593.12Z"/>
                <path id="&lt;Path&gt;" class="shp4"
                      d="M3366.29 352.85C3246.21 345.1 3104.79 338.17 2942.03 332.06C2668.35 321.79 2413.45 317.83 2230.94 319.85C2053.27 171.55 1878.4 50.09 1747.09 20.08C1914.97 9.87 2846.51 49.69 3366.29 352.85Z"/>
            </g>
        </g>
    </g>
    <g id="cable">
        <g id="&lt;Group&gt;">
            <path id="&lt;Path&gt;" class="shp4"
                  d="M1637.61 706.67L1539.49 667.93C1531.96 664.95 1527.29 657.37 1528.02 649.3L1527.51 559.52C1528.62 547.3 1542.25 535.22 1553.61 539.86L1664 587.33C1671.78 590.51 1676.39 598.6 1675.14 606.92L1662.36 692.4C1660.63 704.01 1648.54 710.99 1637.61 706.67Z"/>
            <path id="&lt;Path&gt;" class="shp7"
                  d="M1644.64 703.16L1546.52 664.42C1538.98 661.44 1534.31 653.86 1535.04 645.79L1534.54 556.01C1534.54 537.02 1550.07 534.54 1561.43 539.18L1671.02 583.82C1678.81 587 1683.41 595.09 1682.17 603.41L1669.39 688.88C1667.65 700.5 1655.56 707.47 1644.64 703.16Z"/>
            <path id="&lt;Path&gt;" class="shp4"
                  d="M1644.91 629.78C1641.16 654.07 1622.75 671.39 1603.8 668.47C1584.85 665.54 1572.53 643.48 1576.28 619.18C1580.03 594.89 1598.43 577.56 1617.38 580.49C1636.33 583.41 1648.66 605.48 1644.91 629.78Z"/>
            <path id="&lt;Path&gt;" class="shp7"
                  d="M1639.5 628.94C1636.34 649.41 1620.84 664 1604.87 661.54C1588.91 659.07 1578.52 640.48 1581.68 620.02C1584.84 599.55 1600.35 584.96 1616.31 587.42C1632.28 589.89 1642.66 608.47 1639.5 628.94Z"/>
            <path id="&lt;Path&gt;" class="shp4"
                  d="M1644.91 629.78C1641.75 650.24 1626.92 664.94 1611.8 662.61C1596.67 660.27 1586.97 641.79 1590.13 621.32C1593.29 600.86 1608.11 586.16 1623.24 588.49C1638.36 590.83 1648.07 609.31 1644.91 629.78Z"/>
        </g>
        <path id="&lt;Path&gt;" class="shp7"
              d="M1893.04 567.68C1884.76 580.84 1864.69 612.89 1832.84 663.84C1828.42 670.8 1821.4 675.69 1813.34 677.42C1785.36 683.4 1722.28 696.34 1687.67 703.29C1675.98 705.64 1671.24 693.42 1675.36 685.4C1688.07 660.67 1706.85 622.26 1717.09 601.41C1721.19 593.07 1728.85 587.03 1737.92 584.99C1820.18 566.57 1867.02 556.16 1878.44 553.76C1887.51 551.85 1903.67 550.78 1893.04 567.68Z"/>
        <path id="&lt;Path&gt;" class="shp4"
              d="M1882.42 581.91C1875.32 593.19 1858.12 620.68 1830.8 664.37C1827.01 670.34 1820.99 674.53 1814.08 676.01C1790.09 681.15 1736 692.24 1706.32 698.2C1696.29 700.21 1692.23 689.74 1695.76 682.86C1706.66 661.66 1722.76 628.71 1731.54 610.84C1735.06 603.68 1741.63 598.5 1749.41 596.75C1819.94 580.96 1860.11 572.03 1869.9 569.97C1877.68 568.34 1891.54 567.41 1882.42 581.91Z"/>
        <g id="&lt;Group&gt;">
            <path id="&lt;Path&gt;" class="shp6"
                  d="M1815.21 651.48C1805.13 672.12 1784.56 682.79 1769.27 675.33C1753.98 667.86 1749.75 645.08 1759.83 624.44C1769.9 603.8 1790.47 593.12 1805.76 600.59C1821.06 608.06 1825.28 630.84 1815.21 651.48Z"/>
            <path id="&lt;Path&gt;" class="shp5"
                  d="M1805.19 646.86C1795.11 667.49 1774.54 678.17 1759.25 670.7C1743.96 663.24 1739.73 640.45 1749.81 619.82C1759.89 599.18 1780.45 588.5 1795.74 595.97C1811.04 603.43 1815.26 626.22 1805.19 646.86Z"/>
            <path id="&lt;Path&gt;" class="shp7"
                  d="M1799.88 644.25C1791.37 661.69 1773.99 670.71 1761.07 664.4C1748.15 658.09 1744.58 638.84 1753.09 621.41C1761.61 603.97 1778.98 594.95 1791.9 601.26C1804.82 607.57 1808.4 626.82 1799.88 644.25Z"/>
            <path id="&lt;Path&gt;" class="shp8"
                  d="M1796.48 642.33C1789.02 657.61 1773.8 665.51 1762.48 659.99C1751.16 654.46 1748.03 637.6 1755.49 622.32C1762.95 607.04 1778.17 599.14 1789.49 604.67C1800.81 610.19 1803.94 627.06 1796.48 642.33Z"/>
        </g>
        <path id="&lt;Path&gt;" class="shp22"
              d="M1782.21 603.98C1793.16 605.87 1802.09 618.48 1796.93 634.99C1789.77 657.9 1773.88 661.28 1759.45 659.48C1745.03 657.69 1706.22 650.81 1701.24 657.18C1699.43 659.49 1689.85 685.36 1673.9 705.64C1668.09 713.02 1642.18 740.14 1638.27 742.28C1634.36 744.41 1625.11 745.12 1621.2 742.28C1617.28 739.43 1621.2 699.95 1647.16 659.04C1673.13 618.13 1676.69 616.87 1677.76 611.63C1678.82 606.39 1668.86 594.97 1692.29 595C1702.27 595.02 1752.52 598.86 1782.21 603.98Z"/>
        <g id="&lt;Clip Group&gt;" clip-path="url(#cp1)">
            <path id="&lt;Path&gt;" class="shp23"
                  d="M1675.03 612.67C1681.72 614.22 1686.7 613.87 1689.97 611.63C1694.87 608.27 1707.16 609.11 1721.42 609.92C1730.83 610.46 1757.19 612.7 1800.49 616.66C1793.64 603.1 1789.02 595.88 1786.61 595C1784.21 594.12 1746.64 592.58 1673.9 590.38L1673.9 597.85L1675.03 612.67Z"/>
            <path id="&lt;Path&gt;" class="shp21"
                  d="M1802.12 638.84C1750.89 633.32 1719.9 631.48 1709.16 633.34C1693.05 636.11 1686.09 644.24 1681.67 650.5C1671 665.63 1638.27 732.67 1636.49 735.52C1635.31 737.42 1637.93 740.97 1644.35 746.19L1714.04 663.3L1761.07 664.4C1778.47 664.63 1788.31 662.84 1790.62 659.04C1792.92 655.24 1796.76 648.5 1802.12 638.84Z"/>
            <path id="&lt;Path&gt;" class="shp17"
                  d="M1687.36 591.45C1683.09 595.24 1686.3 598.32 1696.97 600.69C1707.64 603.07 1741.46 606.71 1798.43 611.63C1791.92 603.15 1784.94 598.68 1777.5 598.2C1770.06 597.73 1740.01 595.48 1687.36 591.45Z"/>
            <path id="&lt;Path&gt;" class="shp21"
                  d="M1689.93 615.79C1689.57 618.15 1684.33 619.3 1678.23 618.36C1672.13 617.42 1667.48 614.75 1667.84 612.4C1668.2 610.04 1673.44 608.89 1679.54 609.83C1685.64 610.77 1690.3 613.44 1689.93 615.79Z"/>
            <path id="&lt;Path&gt;" class="shp17"
                  d="M1663.17 632.33C1670.16 624.3 1680.25 622.39 1677.05 630.58C1673.84 638.76 1636.91 724.82 1629.84 732.67C1626.93 735.9 1612.89 734.18 1613.84 730C1618.54 709.47 1640.41 656.51 1647.88 646.39C1652.86 639.64 1657.95 634.95 1663.17 632.33Z"/>
        </g>
        <g id="&lt;Group&gt;">
            <path id="&lt;Compound Path&gt;" class="shp5"
                  d="M1669.73 627.54C1669.73 627.54 1669.73 627.54 1669.73 627.54L1674.77 629.9C1676.91 630.9 1680.03 628.74 1681.75 625.07C1683.47 621.41 1683.13 617.62 1680.99 616.62L1675.97 614.26C1675.96 614.26 1675.96 614.26 1675.95 614.25C1673.82 613.25 1670.69 615.41 1668.97 619.08C1667.25 622.75 1667.59 626.54 1669.73 627.54Z"/>
            <g id="&lt;Group&gt;" style="opacity: 0.102">
                <path id="&lt;Path&gt;" class="shp24"
                      d="M1674.77 629.9L1669.73 627.54C1671.87 628.54 1674.99 626.38 1676.71 622.71C1678.43 619.04 1678.09 615.26 1675.95 614.25L1680.99 616.62C1683.13 617.62 1683.47 621.41 1681.75 625.07C1680.03 628.74 1676.91 630.9 1674.77 629.9Z"/>
            </g>
        </g>
        <g id="&lt;Group&gt;">
            <path id="&lt;Compound Path&gt;" class="shp25"
                  d="M1629.76 760.63C1629.76 760.63 1629.76 760.63 1629.76 760.63L1641.73 740.71C1642.91 738.74 1638.33 734.73 1631.49 731.74C1624.66 728.76 1618.61 728.14 1617.99 730.35L1611.68 752.73C1611.68 752.74 1611.68 752.74 1611.68 752.74C1611.06 754.96 1614.37 758.42 1619.08 760.47C1623.79 762.53 1628.57 762.6 1629.76 760.63Z"/>
            <g id="&lt;Group&gt;" style="opacity: 0.2">
                <path id="&lt;Path&gt;" class="shp24"
                      d="M1641.73 740.71L1629.76 760.63C1630.94 758.66 1627.62 755.2 1622.35 752.9C1617.08 750.6 1612.3 750.53 1611.68 752.74L1617.99 730.35C1618.61 728.14 1624.66 728.76 1631.49 731.74C1638.33 734.73 1642.91 738.74 1641.73 740.71Z"/>
            </g>
        </g>
        <g id="&lt;Group&gt;">
            <g id="&lt;Group&gt;">
                <path id="&lt;Path&gt;" class="shp26"
                      d="M252.13 665.97C271.56 1165.4 211.2 1362.61 446.24 1469.4C552.14 1517.51 804.1 1613.4 1006.55 1620C1444.14 1634.26 1542.15 987.81 1623.72 760.37"/>
            </g>
            <g id="&lt;Group&gt;">
                <path id="&lt;Path&gt;" class="shp26"
                      d="M252.13 665.97C271.56 1165.4 211.2 1362.61 446.24 1469.4C552.14 1517.51 800.06 1609.35 1002.5 1615.95C1440.09 1630.21 1534.05 984.98 1615.62 757.54"/>
            </g>
        </g>
        <g id="&lt;Group&gt;">
            <path id="&lt;Path&gt;" class="shp22"
                  d="M214.15 546.21C207.76 544.21 199.52 548.51 197.74 558.77C195.28 573 202.86 579.17 211.08 582.18C219.29 585.18 230.63 592.17 231.54 596.95C231.87 598.68 233.13 615.16 236.1 630.4C237.18 635.95 243.6 657.6 245.11 659.82C246.62 662.04 251.37 664.96 254.25 664.51C257.13 664.06 265.89 641.84 263.23 612.8C260.56 583.76 259 582.11 259.87 579.01C260.74 575.91 269.21 572.53 256.66 566.11C251.31 563.37 231.45 551.62 214.15 546.21Z"/>
            <g id="&lt;Clip Group&gt;" clip-path="url(#cp2)">
                <path id="&lt;Path&gt;" class="shp23"
                      d="M261.05 580.32C257.04 579.3 254.47 577.75 253.33 575.65C251.63 572.51 244.82 569.58 236.96 566.09C231.77 563.79 219.75 557.75 200.87 547.97C208.27 542.59 212.73 540 214.25 540.19C215.78 540.38 233.62 549.88 267.78 568.69L265.73 572.69L261.05 580.32Z"/>
                <path id="&lt;Path&gt;" class="shp21"
                      d="M193.9 559.4C214.75 570.52 227.8 578.06 233.04 582C240.9 587.91 242.4 594.18 243.05 598.75C244.6 609.78 247.75 654.67 247.92 656.69C248.03 658.03 245.65 659.21 240.78 660.24L226.24 596.71L208.86 584.37C199.48 579.71 194.7 576.04 194.51 573.37C194.32 570.71 194.12 566.05 193.9 559.4Z"/>
                <path id="&lt;Path&gt;" class="shp17"
                      d="M260.28 565.56C261.52 568.77 258.96 569.54 252.59 567.87C246.23 566.21 229.81 558.87 203.36 545.84C209.18 543.1 214.14 542.62 218.26 544.41C222.37 546.2 236.38 553.25 260.28 565.56Z"/>
                <path id="&lt;Path&gt;" class="shp21"
                      d="M252.21 577.89C251.76 579.25 254.24 581.31 257.77 582.48C261.29 583.66 264.52 583.51 264.97 582.15C265.43 580.79 262.94 578.73 259.41 577.56C255.89 576.38 252.66 576.53 252.21 577.89Z"/>
                <path id="&lt;Path&gt;" class="shp17"
                      d="M261.99 594.1C260.46 587.88 255.58 584.09 255.05 589.35C254.51 594.61 255.03 652.97 256.66 659.11C257.33 661.64 260.93 662.46 261.56 659.96C264.69 647.67 267.54 613.31 266.32 605.83C265.51 600.85 264.07 596.94 261.99 594.1Z"/>
            </g>
            <g id="&lt;Group&gt;">
                <path id="&lt;Compound Path&gt;" class="shp5"
                      d="M262.53 585.41C262.64 582.98 261.31 580.96 259.58 580.91C259.57 580.91 259.57 580.91 259.57 580.91L257.1 580.79C255.36 580.74 253.86 582.67 253.75 585.11C253.65 587.55 254.97 589.56 256.71 589.61L259.18 589.73C259.18 589.73 259.18 589.73 259.19 589.73C260.92 589.78 262.42 587.85 262.53 585.41Z"/>
                <g id="&lt;Group&gt;" style="opacity: 0.102">
                    <path id="&lt;Path&gt;" class="shp24"
                          d="M256.71 589.61L259.19 589.73C257.45 589.68 256.12 587.67 256.23 585.23C256.34 582.79 257.84 580.86 259.58 580.91L257.1 580.79C255.36 580.74 253.86 582.67 253.75 585.11C253.65 587.55 254.97 589.56 256.71 589.61Z"/>
                </g>
            </g>
            <g id="&lt;Group&gt;">
                <path id="&lt;Compound Path&gt;" class="shp25"
                      d="M251.9 674.31C254.99 674.19 257.6 672.97 257.74 671.6C257.74 671.6 257.74 671.59 257.74 671.59L259.1 657.66C259.23 656.28 255.71 655.31 251.22 655.49C246.74 655.66 243.29 656.91 243.52 658.28L245.88 672.06C245.88 672.06 245.88 672.07 245.88 672.07C246.11 673.43 248.8 674.43 251.9 674.31Z"/>
                <g id="&lt;Group&gt;" style="opacity: 0.2">
                    <path id="&lt;Path&gt;" class="shp24"
                          d="M243.52 658.28L245.88 672.07C245.64 670.7 248.26 669.49 251.72 669.35C255.18 669.21 257.87 670.22 257.74 671.6L259.1 657.66C259.23 656.28 255.71 655.31 251.22 655.49C246.74 655.66 243.29 656.91 243.52 658.28Z"/>
                </g>
            </g>
        </g>
    </g>
</svg>