<svg version="1.2" baseProfile="tiny-ps" xmlns="http://www.w3.org/2000/svg" viewBox="0 0 1290 418" width="1290"
     height="418">
    <title>devices-iStock-970202490-ai</title>
    <defs>
        <linearGradient id="grd1" gradientUnits="userSpaceOnUse" x1="346.521" y1="41.714" x2="494.019" y2="41.714">
            <stop offset="0.01" stop-color="#cff09e"/>
            <stop offset="0.99" stop-color="#79bd9a"/>
        </linearGradient>
        <linearGradient id="grd2" gradientUnits="userSpaceOnUse" x1="977.889" y1="193.481" x2="829.791" y2="4.245">
            <stop offset="0" stop-color="#d4ffb0"/>
            <stop offset="0.482" stop-color="#47addd"/>
            <stop offset="1" stop-color="#0329aa"/>
        </linearGradient>
        <linearGradient id="grd3" gradientUnits="userSpaceOnUse" x1="656.4" y1="300.207" x2="725.854" y2="300.207">
            <stop offset="0" stop-color="#98e6dc"/>
            <stop offset="0.419" stop-color="#0ab0d1"/>
            <stop offset="0.983" stop-color="#0b38aa"/>
        </linearGradient>
        <linearGradient id="grd4" gradientUnits="userSpaceOnUse" x1="899.152" y1="322.277" x2="1024.568" y2="322.277">
            <stop offset="0" stop-color="#0329aa"/>
            <stop offset="0.518" stop-color="#47addd"/>
            <stop offset="1" stop-color="#d4ffb0"/>
        </linearGradient>
        <linearGradient id="grd5" gradientUnits="userSpaceOnUse" x1="610.402" y1="300.207" x2="540.951" y2="300.207">
            <stop offset="0.01" stop-color="#79bd9a"/>
            <stop offset="0.99" stop-color="#cff09e"/>
        </linearGradient>
        <linearGradient id="grd6" gradientUnits="userSpaceOnUse" x1="381.711" y1="321.814" x2="256.301" y2="321.814">
            <stop offset="0.01" stop-color="#cff09e"/>
            <stop offset="0.99" stop-color="#79bd9a"/>
        </linearGradient>
        <linearGradient id="grd7" gradientUnits="userSpaceOnUse" x1="300.081" y1="74.828" x2="93.27" y2="329.159">
            <stop offset="0.01" stop-color="#79bd9a"/>
            <stop offset="0.99" stop-color="#cff09e"/>
        </linearGradient>
        <linearGradient id="grd8" gradientUnits="userSpaceOnUse" x1="989.92" y1="70.46" x2="1196.73" y2="324.79">
            <stop offset="0" stop-color="#0329aa"/>
            <stop offset="0.518" stop-color="#47addd"/>
            <stop offset="1" stop-color="#d4ffb0"/>
        </linearGradient>
    </defs>
    <style>
        tspan { white-space:pre }
        .shp0 { opacity: 0.302;mix-blend-mode: multiply;fill: #b8c3db }
        .shp1 { fill: #99a9c6 }
        .shp2 { fill: #d4deec }
        .shp3 { fill: #b8c3db }
        .shp4 { fill: url(#grd1) }
        .shp5 { fill: #fcffff }
        .shp6 { opacity: 0.102;mix-blend-mode: overlay;fill: #ffffff }
        .shp7 { fill: url(#grd2) }
        .shp8 { opacity: 0.2;mix-blend-mode: overlay;fill: #ffffff }
        .shp9 { fill: #dae1ed }
        .shp10 { mix-blend-mode: overlay;fill: #c4c4c4 }
        .shp11 { fill: #bbd9f2 }
        .shp12 { fill: url(#grd3) }
        .shp13 { fill: url(#grd4) }
        .shp14 { fill: url(#grd5) }
        .shp15 { fill: url(#grd6) }
        .shp16 { fill: #aab8d1 }
        .shp17 { opacity: 0.6;mix-blend-mode: multiply;fill: #b8c3db }
        .shp18 { fill: #c5cfe2 }
        .shp19 { opacity: 0.502;mix-blend-mode: multiply;fill: #b8c3db }
        .shp20 { fill: url(#grd7) }
        .shp21 { fill: #7781a9 }
        .shp22 { fill: #ffffff }
        .shp23 { fill: url(#grd8) }
    </style>
    <g>
        <g>
            <g>
                <path class="shp0"
                      d="M492.02 158.93L339.43 247.03C336.92 248.48 336.92 250.84 339.43 252.28L436.96 308.6C439.47 310.04 443.55 310.04 446.06 308.6L591.98 224.34C593.88 223.25 595.04 221.21 595.02 219.02C594.99 216.82 593.79 214.81 591.87 213.76L492.02 158.93Z"/>
                <g>
                    <g>
                        <path class="shp1"
                              d="M595.27 214.65L596.53 213.23L596.54 216.72L596.54 216.72C596.54 217.59 595.97 218.45 594.82 219.11L445.24 305.48C442.95 306.8 439.24 306.8 436.95 305.48L348.86 254.55C346.52 253.2 345.39 251.43 345.43 249.66L345.43 249.67L345.42 246.17L346.71 246.68C347.25 246.07 347.97 245.49 348.86 244.98L490.16 163.39C494.74 160.75 502.15 160.75 506.73 163.4L594.82 214.33C594.99 214.43 595.12 214.54 595.27 214.65Z"/>
                        <path class="shp2"
                              d="M594.82 210.84L506.72 159.91C502.15 157.26 494.73 157.26 490.15 159.9L423.85 198.19L395.8 214.38L386.44 219.78L348.84 241.49C347.71 242.15 346.85 242.9 346.28 243.71C346.24 243.78 346.2 243.85 346.16 243.92C346.12 243.96 346.1 244 346.07 244.05C345.97 244.22 345.87 244.4 345.79 244.58C345.72 244.74 345.65 244.9 345.6 245.06C345.6 245.07 345.6 245.09 345.6 245.09C344.95 247.19 346.04 249.43 348.85 251.05L436.94 301.99C439.23 303.31 442.94 303.31 445.23 301.99L579.93 224.22L589.82 218.51L594.82 215.63C597.11 214.3 597.1 212.16 594.82 210.84Z"/>
                        <path class="shp3"
                              d="M527.45 240.84C528.05 240.49 528.05 239.94 527.45 239.59L503.68 225.87C502.49 225.17 500.55 225.17 499.35 225.87L482.04 235.86L474.72 240.09L472.27 241.5L462.46 247.17C462.16 247.34 461.94 247.54 461.79 247.75C461.78 247.76 461.76 247.78 461.76 247.8C461.75 247.81 461.74 247.82 461.73 247.83C461.71 247.88 461.68 247.93 461.66 247.97C461.64 248.01 461.63 248.06 461.62 248.1C461.62 248.1 461.61 248.11 461.61 248.11C461.44 248.66 461.73 249.24 462.46 249.66L486.23 263.39C486.83 263.73 487.8 263.73 488.39 263.39L523.57 243.08L526.15 241.59L527.45 240.84Z"/>
                    </g>
                    <path class="shp1"
                          d="M496.13 39.47L497.98 39.09L494.97 37.33L494.97 37.33C494.22 36.9 493.19 36.96 492.05 37.62L342.46 123.99C340.17 125.31 338.31 128.52 338.31 131.16L338.31 236.28C338.31 238.98 339.28 240.85 340.83 241.7L340.82 241.7L343.84 243.45L344.04 242.08C344.85 241.92 345.71 241.59 346.6 241.07L487.91 159.5C492.48 156.86 496.19 150.43 496.19 145.14L496.19 40.01C496.19 39.82 496.15 39.64 496.13 39.47Z"/>
                    <path class="shp3"
                          d="M499.2 41.77L499.2 146.89C499.2 152.18 495.5 158.61 490.92 161.25L424.62 199.53L396.57 215.72L387.22 221.12L349.62 242.83C348.47 243.49 347.39 243.85 346.4 243.93C346.32 243.94 346.24 243.94 346.17 243.94C346.11 243.95 346.06 243.95 346.01 243.95C345.8 243.96 345.6 243.94 345.41 243.93C345.23 243.91 345.06 243.89 344.9 243.85C344.89 243.85 344.87 243.84 344.87 243.84C342.72 243.35 341.33 241.29 341.33 238.04L341.33 132.92C341.33 130.27 343.19 127.06 345.48 125.73L480.17 47.97L490.06 42.26L495.06 39.38C497.36 38.05 499.2 39.13 499.2 41.77Z"/>
                    <path class="shp4"
                          d="M494.02 45.71L494.02 146.54L406.12 197.28L346.52 231.69L346.52 130.87L480.73 53.39L494.02 45.71Z"/>
                    <g>
                        <g>
                            <g>
                                <path class="shp5"
                                      d="M368.48 248.8L360.55 253.38L358.29 252.08L366.22 247.49L368.48 248.8Z"/>
                                <path class="shp5"
                                      d="M373.85 254.74L368.37 257.9L362.71 254.63L368.18 251.47L373.85 254.74Z"/>
                                <path class="shp5"
                                      d="M376.39 244.24L370.73 247.51L368.46 246.2L374.13 242.93L376.39 244.24Z"/>
                                <path class="shp5"
                                      d="M384.55 239.53L378.89 242.8L376.62 241.49L382.29 238.22L384.55 239.53Z"/>
                                <path class="shp5"
                                      d="M392.71 234.82L387.05 238.09L384.78 236.78L390.44 233.5L392.71 234.82Z"/>
                                <path class="shp5"
                                      d="M400.87 230.1L395.21 233.38L392.94 232.07L398.61 228.8L400.87 230.1Z"/>
                                <path class="shp5"
                                      d="M409.03 225.4L403.37 228.66L401.1 227.36L406.77 224.08L409.03 225.4Z"/>
                                <path class="shp5"
                                      d="M417.19 220.68L411.53 223.95L409.26 222.64L414.92 219.37L417.19 220.68Z"/>
                                <path class="shp5"
                                      d="M425.35 215.97L419.68 219.25L417.42 217.94L423.08 214.66L425.35 215.97Z"/>
                                <path class="shp5"
                                      d="M433.51 211.26L427.85 214.53L425.58 213.22L431.25 209.95L433.51 211.26Z"/>
                                <path class="shp5"
                                      d="M441.67 206.55L436.01 209.82L433.74 208.51L439.41 205.24L441.67 206.55Z"/>
                                <path class="shp5"
                                      d="M449.83 201.84L444.16 205.11L441.9 203.8L447.56 200.53L449.83 201.84Z"/>
                                <path class="shp5"
                                      d="M460.26 195.82L454.59 199.09L452.33 197.78L457.99 194.51L460.26 195.82Z"/>
                                <path class="shp5"
                                      d="M468.42 191.11L462.76 194.38L460.49 193.07L466.15 189.8L468.42 191.11Z"/>
                                <path class="shp5"
                                      d="M476.39 186.5L470.72 189.78L468.46 188.47L474.12 185.2L476.39 186.5Z"/>
                                <path class="shp5"
                                      d="M486.64 180.59L480.97 183.86L478.7 182.56L484.37 179.28L486.64 180.59Z"/>
                                <path class="shp5"
                                      d="M494.61 175.99L488.94 179.26L486.68 177.95L492.34 174.67L494.61 175.99Z"/>
                                <path class="shp5"
                                      d="M502.59 171.38L496.92 174.66L494.65 173.35L500.31 170.07L502.59 171.38Z"/>
                                <path class="shp5"
                                      d="M510.56 166.78L504.89 170.05L502.63 168.74L508.29 165.47L510.56 166.78Z"/>
                                <path class="shp5"
                                      d="M384.58 258.1L376.65 262.68L370.98 259.4L378.92 254.83L384.58 258.1Z"/>
                                <path class="shp5"
                                      d="M397.39 260.25L384.92 267.45L379.25 264.18L391.72 256.98L397.39 260.25Z"/>
                                <path class="shp5"
                                      d="M401.58 267.38L393.19 272.23L387.53 268.96L395.91 264.12L401.58 267.38Z"/>
                                <path class="shp5"
                                      d="M381.47 250.34L375.99 253.5L370.32 250.23L375.8 247.07L381.47 250.34Z"/>
                                <path class="shp5"
                                      d="M389.09 245.94L383.62 249.1L377.94 245.83L383.42 242.67L389.09 245.94Z"/>
                                <path class="shp5"
                                      d="M396.7 241.54L391.23 244.7L385.56 241.43L391.04 238.27L396.7 241.54Z"/>
                                <path class="shp5"
                                      d="M404.32 237.14L398.85 240.3L393.18 237.03L398.66 233.87L404.32 237.14Z"/>
                                <path class="shp5"
                                      d="M411.94 232.75L406.46 235.91L400.8 232.63L406.27 229.47L411.94 232.75Z"/>
                                <path class="shp5"
                                      d="M419.56 228.35L414.08 231.51L408.42 228.23L413.89 225.08L419.56 228.35Z"/>
                                <path class="shp5"
                                      d="M427.18 223.95L421.7 227.11L416.04 223.83L421.51 220.68L427.18 223.95Z"/>
                                <path class="shp5"
                                      d="M434.79 219.55L429.32 222.71L423.66 219.44L429.13 216.28L434.79 219.55Z"/>
                                <path class="shp5"
                                      d="M442.42 215.15L436.94 218.31L431.27 215.04L436.75 211.88L442.42 215.15Z"/>
                                <path class="shp5"
                                      d="M450.03 210.75L444.56 213.91L438.89 210.64L444.37 207.49L450.03 210.75Z"/>
                                <path class="shp5"
                                      d="M405.63 255.49L400.16 258.66L394.49 255.38L399.96 252.22L405.63 255.49Z"/>
                                <path class="shp5"
                                      d="M413.25 251.1L407.77 254.26L402.11 250.98L407.58 247.83L413.25 251.1Z"/>
                                <path class="shp5"
                                      d="M420.87 246.7L415.39 249.85L409.73 246.59L415.2 243.43L420.87 246.7Z"/>
                                <path class="shp5"
                                      d="M428.49 242.3L423.01 245.46L417.35 242.19L422.82 239.03L428.49 242.3Z"/>
                                <path class="shp5"
                                      d="M436.11 237.9L430.63 241.06L424.96 237.79L430.44 234.63L436.11 237.9Z"/>
                                <path class="shp5"
                                      d="M443.72 233.5L438.25 236.66L432.58 233.39L438.06 230.23L443.72 233.5Z"/>
                                <path class="shp5"
                                      d="M451.34 229.1L445.87 232.26L440.2 228.99L445.68 225.83L451.34 229.1Z"/>
                                <path class="shp5"
                                      d="M458.96 224.7L453.48 227.86L447.82 224.59L453.3 221.43L458.96 224.7Z"/>
                                <path class="shp5"
                                      d="M466.58 220.3L461.11 223.47L455.44 220.19L460.91 217.03L466.58 220.3Z"/>
                                <path class="shp5"
                                      d="M474.06 215.99L468.58 219.15L462.92 215.88L468.39 212.72L474.06 215.99Z"/>
                                <path class="shp5"
                                      d="M457.65 206.35L452.18 209.51L446.51 206.24L451.98 203.08L457.65 206.35Z"/>
                                <path class="shp5"
                                      d="M392.57 253.35L387.1 256.51L381.43 253.24L386.91 250.08L392.57 253.35Z"/>
                                <path class="shp5"
                                      d="M400.19 248.95L394.72 252.11L389.05 248.84L394.52 245.68L400.19 248.95Z"/>
                                <path class="shp5"
                                      d="M407.81 244.55L402.33 247.71L396.67 244.44L402.14 241.29L407.81 244.55Z"/>
                                <path class="shp5"
                                      d="M415.43 240.15L409.96 243.32L404.29 240.04L409.76 236.88L415.43 240.15Z"/>
                                <path class="shp5"
                                      d="M423.05 235.76L417.57 238.91L411.91 235.65L417.38 232.48L423.05 235.76Z"/>
                                <path class="shp5"
                                      d="M430.67 231.36L425.19 234.52L419.52 231.25L425 228.09L430.67 231.36Z"/>
                                <path class="shp5"
                                      d="M438.29 226.96L432.81 230.12L427.14 226.85L432.61 223.69L438.29 226.96Z"/>
                                <path class="shp5"
                                      d="M445.9 222.56L440.43 225.72L434.77 222.45L440.23 219.29L445.9 222.56Z"/>
                                <path class="shp5"
                                      d="M453.52 218.16L448.05 221.32L442.38 218.05L447.86 214.89L453.52 218.16Z"/>
                                <path class="shp5"
                                      d="M465.81 211.06L455.67 216.92L450 213.65L460.14 207.79L465.81 211.06Z"/>
                                <path class="shp5"
                                      d="M409.12 262.9L403.64 266.06L397.98 262.79L403.45 259.63L409.12 262.9Z"/>
                                <path class="shp5"
                                      d="M405.59 258.39L411.26 261.67L462.45 232.11L456.79 228.84L405.59 258.39Z"/>
                                <path class="shp5"
                                      d="M470.07 227.71L464.59 230.87L458.93 227.61L464.4 224.44L470.07 227.71Z"/>
                                <path class="shp5"
                                      d="M482.36 220.62L472.21 226.47L466.55 223.2L476.69 217.35L482.36 220.62Z"/>
                                <path class="shp5"
                                      d="M497 186.51L491.28 189.82L485.62 186.55L491.33 183.24L497 186.51Z"/>
                                <path class="shp5"
                                      d="M504.96 181.92L499.24 185.22L493.57 181.95L499.29 178.65L504.96 181.92Z"/>
                                <path class="shp5"
                                      d="M512.91 177.33L507.19 180.63L501.53 177.35L507.25 174.05L512.91 177.33Z"/>
                                <path class="shp5"
                                      d="M520.87 172.73L515.15 176.03L509.49 172.76L515.21 169.46L520.87 172.73Z"/>
                                <path class="shp5"
                                      d="M504.25 190.71L498.53 194L492.87 190.73L498.59 187.43L504.25 190.71Z"/>
                                <path class="shp5"
                                      d="M512.21 186.11L506.49 189.41L500.83 186.14L506.54 182.84L512.21 186.11Z"/>
                                <path class="shp5"
                                      d="M520.16 181.51L514.45 184.82L508.78 181.54L514.5 178.24L520.16 181.51Z"/>
                                <path class="shp5"
                                      d="M528.13 176.92L522.41 180.22L516.74 176.95L522.45 173.65L528.13 176.92Z"/>
                                <path class="shp5"
                                      d="M511.5 194.89L505.79 198.19L500.12 194.92L505.84 191.62L511.5 194.89Z"/>
                                <path class="shp5"
                                      d="M519.47 190.3L513.74 193.59L508.08 190.33L513.79 187.03L519.47 190.3Z"/>
                                <path class="shp5"
                                      d="M527.42 185.7L521.7 189L516.04 185.73L521.75 182.43L527.42 185.7Z"/>
                                <path class="shp5"
                                      d="M526.94 194.62L513.26 202.51L507.6 199.24L521.27 191.34L526.94 194.62Z"/>
                                <path class="shp5"
                                      d="M534.9 190.02L529.19 193.32L523.51 190.05L529.23 186.75L534.9 190.02Z"/>
                                <path class="shp5"
                                      d="M542.86 185.42L537.14 188.73L523.99 181.14L529.71 177.84L542.86 185.42Z"/>
                                <path class="shp5"
                                      d="M468.17 200.28L462.41 203.6L456.74 200.33L462.5 197.01L468.17 200.28Z"/>
                                <path class="shp5"
                                      d="M476.19 195.64L470.43 198.97L464.76 195.7L470.53 192.38L476.19 195.64Z"/>
                                <path class="shp5"
                                      d="M484.21 191.02L478.45 194.34L472.79 191.07L478.54 187.75L484.21 191.02Z"/>
                                <path class="shp5"
                                      d="M475.65 204.6L469.89 207.92L464.23 204.65L469.99 201.33L475.65 204.6Z"/>
                                <path class="shp5"
                                      d="M483.67 199.96L477.91 203.29L472.25 200.02L478.01 196.69L483.67 199.96Z"/>
                                <path class="shp5"
                                      d="M491.69 195.34L485.93 198.67L480.27 195.39L486.03 192.07L491.69 195.34Z"/>
                                <path class="shp5"
                                      d="M492.97 205.33L487.2 208.66L481.53 205.39L487.3 202.06L492.97 205.33Z"/>
                                <path class="shp5"
                                      d="M492.43 214.28L486.67 217.61L481 214.34L486.76 211.01L492.43 214.28Z"/>
                                <path class="shp5"
                                      d="M500.44 209.65L494.69 212.98L489.02 209.71L494.78 206.38L500.44 209.65Z"/>
                                <path class="shp5"
                                      d="M508.46 205.02L502.7 208.35L497.04 205.08L502.8 201.75L508.46 205.02Z"/>
                            </g>
                        </g>
                    </g>
                </g>
            </g>
            <path class="shp6" d="M480.73 53.39L406.12 197.28L346.52 231.69L346.52 130.87L480.73 53.39Z"/>
        </g>
        <g>
            <g>
                <path class="shp0"
                      d="M777.36 158.93L929.95 247.03C932.46 248.48 932.46 250.84 929.95 252.29L832.42 308.59C829.91 310.05 825.83 310.05 823.32 308.59L677.4 224.34C675.5 223.25 674.34 221.21 674.37 219.02C674.39 216.82 675.59 214.81 677.52 213.76L777.36 158.93Z"/>
                <g>
                    <path class="shp1"
                          d="M675.06 214.65L673.8 213.23L673.79 216.72L673.79 216.72C673.79 217.59 674.36 218.45 675.51 219.11L825.09 305.48C827.38 306.8 831.09 306.8 833.38 305.48L921.47 254.55C923.8 253.2 924.94 251.43 924.9 249.66L924.9 249.67L924.91 246.17L923.62 246.68C923.07 246.07 922.36 245.49 921.47 244.98L780.17 163.39C775.59 160.75 768.18 160.75 763.6 163.4L675.51 214.33C675.34 214.43 675.21 214.54 675.06 214.65Z"/>
                    <path class="shp2"
                          d="M675.51 210.84L763.61 159.91C768.18 157.26 775.6 157.26 780.17 159.9L846.48 198.19L874.53 214.38L883.88 219.78L921.48 241.48C922.62 242.15 923.48 242.9 924.05 243.71C924.09 243.78 924.13 243.85 924.17 243.92C924.2 243.96 924.23 244 924.26 244.05C924.36 244.22 924.46 244.4 924.54 244.58C924.61 244.74 924.67 244.9 924.72 245.06C924.73 245.07 924.73 245.09 924.73 245.09C925.38 247.19 924.29 249.43 921.48 251.05L833.38 301.99C831.1 303.31 827.38 303.31 825.1 301.99L690.4 224.22L680.51 218.51L675.51 215.63C673.22 214.3 673.22 212.16 675.51 210.84Z"/>
                    <path class="shp3"
                          d="M742.88 240.84C742.28 240.49 742.29 239.94 742.88 239.59L766.65 225.87C767.84 225.17 769.78 225.17 770.98 225.87L788.28 235.86L795.61 240.09L798.05 241.5L807.87 247.17C808.16 247.34 808.39 247.53 808.54 247.75C808.55 247.76 808.56 247.78 808.57 247.8C808.58 247.81 808.59 247.82 808.6 247.83C808.62 247.88 808.64 247.93 808.66 247.97C808.69 248.01 808.7 248.06 808.71 248.1C808.71 248.1 808.71 248.11 808.72 248.11C808.88 248.66 808.6 249.24 807.87 249.66L784.1 263.39C783.5 263.73 782.53 263.73 781.93 263.39L746.76 243.08L744.18 241.59L742.88 240.84Z"/>
                </g>
                <path class="shp1"
                      d="M774.2 39.47L772.34 39.09L775.36 37.33L775.36 37.33C776.1 36.9 777.14 36.96 778.28 37.62L927.87 123.99C930.16 125.31 932.02 128.52 932.02 131.16L932.02 236.28C932.02 238.98 931.05 240.85 929.5 241.69L929.51 241.7L926.48 243.45L926.28 242.08C925.48 241.92 924.62 241.59 923.73 241.07L782.42 159.49C777.85 156.86 774.14 150.43 774.14 145.14L774.14 40.01C774.14 39.82 774.18 39.64 774.2 39.47Z"/>
                <path class="shp3"
                      d="M771.13 41.77L771.13 146.89C771.13 152.18 774.83 158.6 779.41 161.24L845.71 199.53L873.76 215.72L883.11 221.12L920.71 242.83C921.86 243.49 922.94 243.85 923.93 243.93C924.01 243.94 924.08 243.94 924.16 243.94C924.22 243.95 924.26 243.95 924.32 243.95C924.52 243.96 924.72 243.94 924.92 243.93C925.09 243.91 925.26 243.89 925.43 243.85C925.44 243.85 925.44 243.85 925.46 243.83C927.6 243.34 929 241.29 929 238.04L929 132.92C929 130.27 927.14 127.06 924.85 125.73L790.15 47.97L780.27 42.26L775.27 39.38C772.97 38.05 771.13 39.13 771.13 41.77Z"/>
                <path class="shp7" d="M923.81 231.69L776.31 146.54L776.31 45.72L923.81 130.87L923.81 231.69Z"/>
                <g>
                    <g>
                        <path class="shp5" d="M844.54 212.08L852.56 216.71L854.85 215.39L846.83 210.76L844.54 212.08Z"/>
                        <path class="shp5" d="M839.11 218.08L844.65 221.28L850.38 217.97L844.85 214.77L839.11 218.08Z"/>
                        <path class="shp5" d="M836.54 207.46L842.27 210.77L844.57 209.45L838.83 206.14L836.54 207.46Z"/>
                        <path class="shp5" d="M828.29 202.7L834.02 206.01L836.31 204.69L830.58 201.38L828.29 202.7Z"/>
                        <path class="shp5" d="M820.03 197.93L825.76 201.24L828.06 199.92L822.33 196.61L820.03 197.93Z"/>
                        <path class="shp5" d="M811.78 193.17L817.51 196.48L819.8 195.16L814.07 191.85L811.78 193.17Z"/>
                        <path class="shp5" d="M803.53 188.4L809.26 191.71L811.55 190.39L805.82 187.08L803.53 188.4Z"/>
                        <path class="shp5" d="M795.28 183.64L801 186.95L803.3 185.62L797.57 182.32L795.28 183.64Z"/>
                        <path class="shp5" d="M787.02 178.88L792.76 182.18L795.04 180.86L789.31 177.55L787.02 178.88Z"/>
                        <path class="shp5" d="M778.77 174.11L784.5 177.42L786.79 176.1L781.06 172.79L778.77 174.11Z"/>
                        <path class="shp5" d="M770.52 169.34L776.25 172.65L778.54 171.33L772.81 168.02L770.52 169.34Z"/>
                        <path class="shp5" d="M762.27 164.58L767.99 167.89L770.29 166.56L764.56 163.26L762.27 164.58Z"/>
                        <path class="shp5" d="M828.26 221.48L836.28 226.11L842.01 222.8L833.99 218.17L828.26 221.48Z"/>
                        <path class="shp5" d="M815.31 223.66L827.92 230.94L833.65 227.63L821.04 220.35L815.31 223.66Z"/>
                        <path class="shp5" d="M811.06 230.88L819.55 235.77L825.28 232.46L816.8 227.57L811.06 230.88Z"/>
                        <path class="shp5" d="M831.41 213.64L836.95 216.83L842.68 213.52L837.14 210.33L831.41 213.64Z"/>
                        <path class="shp5" d="M823.7 209.19L829.24 212.38L834.97 209.07L829.44 205.88L823.7 209.19Z"/>
                        <path class="shp5" d="M816 204.74L821.54 207.93L827.26 204.63L821.73 201.43L816 204.74Z"/>
                        <path class="shp5" d="M808.29 200.29L813.83 203.48L819.56 200.18L814.02 196.98L808.29 200.29Z"/>
                        <path class="shp5" d="M800.59 195.84L806.12 199.04L811.86 195.73L806.32 192.53L800.59 195.84Z"/>
                        <path class="shp5" d="M792.88 191.39L798.42 194.59L804.15 191.28L798.62 188.08L792.88 191.39Z"/>
                        <path class="shp5" d="M785.18 186.94L790.71 190.14L796.44 186.83L790.91 183.63L785.18 186.94Z"/>
                        <path class="shp5" d="M777.47 182.49L783.01 185.69L788.74 182.38L783.2 179.18L777.47 182.49Z"/>
                        <path class="shp5" d="M769.77 178.04L775.3 181.24L781.03 177.93L775.5 174.73L769.77 178.04Z"/>
                        <path class="shp5" d="M762.06 173.6L767.59 176.79L773.33 173.48L767.79 170.29L762.06 173.6Z"/>
                        <path class="shp5" d="M806.97 218.85L812.5 222.05L818.24 218.74L812.7 215.54L806.97 218.85Z"/>
                        <path class="shp5" d="M799.26 214.4L804.8 217.6L810.53 214.29L805 211.09L799.26 214.4Z"/>
                        <path class="shp5" d="M791.55 209.95L797.1 213.14L802.82 209.84L797.29 206.64L791.55 209.95Z"/>
                        <path class="shp5" d="M783.85 205.5L789.39 208.7L795.12 205.39L789.58 202.19L783.85 205.5Z"/>
                        <path class="shp5" d="M776.15 201.05L781.68 204.25L787.42 200.94L781.88 197.74L776.15 201.05Z"/>
                        <path class="shp5" d="M768.44 196.6L773.98 199.8L779.71 196.49L774.17 193.29L768.44 196.6Z"/>
                        <path class="shp5" d="M760.74 192.15L766.27 195.35L772 192.04L766.47 188.85L760.74 192.15Z"/>
                        <path class="shp5" d="M753.03 187.7L758.57 190.9L764.3 187.59L758.76 184.4L753.03 187.7Z"/>
                        <path class="shp5" d="M745.32 183.26L750.86 186.45L756.59 183.14L751.06 179.95L745.32 183.26Z"/>
                        <path class="shp5" d="M737.76 178.89L743.29 182.09L749.03 178.78L743.49 175.58L737.76 178.89Z"/>
                        <path class="shp5" d="M754.36 169.15L759.89 172.34L765.62 169.03L760.08 165.84L754.36 169.15Z"/>
                        <path class="shp5" d="M820.18 216.68L825.71 219.88L831.45 216.57L825.91 213.37L820.18 216.68Z"/>
                        <path class="shp5" d="M812.47 212.23L818.01 215.43L823.74 212.12L818.2 208.92L812.47 212.23Z"/>
                        <path class="shp5" d="M804.77 207.78L810.3 210.98L816.03 207.67L810.5 204.47L804.77 207.78Z"/>
                        <path class="shp5" d="M797.06 203.33L802.6 206.53L808.33 203.22L802.79 200.03L797.06 203.33Z"/>
                        <path class="shp5" d="M789.35 198.88L794.89 202.08L800.62 198.77L795.09 195.57L789.35 198.88Z"/>
                        <path class="shp5" d="M781.65 194.44L787.18 197.63L792.92 194.32L787.38 191.13L781.65 194.44Z"/>
                        <path class="shp5" d="M773.94 189.99L779.48 193.18L785.21 189.87L779.67 186.68L773.94 189.99Z"/>
                        <path class="shp5" d="M766.24 185.54L771.77 188.73L777.51 185.42L771.97 182.23L766.24 185.54Z"/>
                        <path class="shp5" d="M758.53 181.09L764.07 184.29L769.8 180.98L764.26 177.78L758.53 181.09Z"/>
                        <path class="shp5" d="M746.1 173.91L756.36 179.83L762.09 176.53L751.83 170.6L746.1 173.91Z"/>
                        <path class="shp5" d="M803.44 226.34L808.98 229.54L814.71 226.23L809.18 223.03L803.44 226.34Z"/>
                        <path class="shp5" d="M807.01 221.78L801.27 225.09L749.5 195.2L755.23 191.89L807.01 221.78Z"/>
                        <path class="shp5" d="M741.8 190.75L747.33 193.95L753.06 190.64L747.53 187.44L741.8 190.75Z"/>
                        <path class="shp5" d="M729.36 183.58L739.63 189.5L745.36 186.19L735.1 180.27L729.36 183.58Z"/>
                    </g>
                    <g>
                        <path class="shp5" d="M906.83 248.09L912.55 251.4L914.85 250.08L909.12 246.77L906.83 248.09Z"/>
                        <path class="shp5" d="M898.76 243.44L904.49 246.75L906.78 245.42L901.05 242.12L898.76 243.44Z"/>
                        <path class="shp5" d="M890.69 238.78L896.42 242.09L898.71 240.77L892.99 237.46L890.69 238.78Z"/>
                        <path class="shp5" d="M882.63 234.12L888.36 237.43L890.65 236.11L884.92 232.8L882.63 234.12Z"/>
                        <path class="shp5" d="M896.34 254.09L902.13 257.43L907.86 254.12L902.07 250.78L896.34 254.09Z"/>
                        <path class="shp5" d="M888.29 249.44L894.08 252.78L899.81 249.47L894.03 246.13L888.29 249.44Z"/>
                        <path class="shp5" d="M880.24 244.79L886.03 248.13L891.76 244.82L885.97 241.49L880.24 244.79Z"/>
                        <path class="shp5" d="M872.2 240.15L877.98 243.48L883.71 240.17L877.93 236.84L872.2 240.15Z"/>
                        <path class="shp5" d="M889.01 258.33L894.79 261.66L900.52 258.35L894.74 255.02L889.01 258.33Z"/>
                        <path class="shp5" d="M880.96 253.68L886.74 257.02L892.47 253.71L886.69 250.37L880.96 253.68Z"/>
                        <path class="shp5" d="M872.91 249.03L878.69 252.37L884.42 249.06L878.64 245.72L872.91 249.03Z"/>
                        <path class="shp5" d="M864.86 244.38L870.64 247.72L876.38 244.41L870.59 241.08L864.86 244.38Z"/>
                        <path class="shp5" d="M881.67 262.56L887.46 265.89L893.18 262.59L887.4 259.25L881.67 262.56Z"/>
                        <path class="shp5" d="M873.63 257.91L879.4 261.25L885.14 257.94L879.35 254.6L873.63 257.91Z"/>
                        <path class="shp5" d="M865.57 253.26L871.35 256.6L877.09 253.3L871.31 249.96L865.57 253.26Z"/>
                        <path class="shp5" d="M866.06 262.28L879.88 270.27L885.62 266.96L871.79 258.97L866.06 262.28Z"/>
                        <path class="shp5" d="M858.01 257.63L863.79 260.97L869.52 257.66L863.74 254.33L858.01 257.63Z"/>
                        <path class="shp5" d="M849.96 252.99L855.74 256.33L869.04 248.65L863.26 245.31L849.96 252.99Z"/>
                    </g>
                    <g>
                        <path class="shp5" d="M872.75 228.7L878.48 232.01L880.77 230.68L875.04 227.37L872.75 228.7Z"/>
                        <path class="shp5" d="M864.49 223.94L870.22 227.24L872.52 225.92L866.79 222.61L864.49 223.94Z"/>
                        <path class="shp5" d="M856.43 219.27L862.16 222.59L864.45 221.26L858.72 217.95L856.43 219.27Z"/>
                        <path class="shp5" d="M864.74 233.21L870.57 236.57L876.3 233.26L870.47 229.9L864.74 233.21Z"/>
                        <path class="shp5" d="M856.63 228.53L862.46 231.89L868.19 228.58L862.36 225.22L856.63 228.53Z"/>
                        <path class="shp5" d="M848.52 223.84L854.35 227.21L860.08 223.9L854.25 220.53L848.52 223.84Z"/>
                        <path class="shp5" d="M857.18 237.58L863 240.94L868.74 237.63L862.91 234.27L857.18 237.58Z"/>
                        <path class="shp5" d="M849.07 232.9L854.89 236.26L860.63 232.95L854.8 229.58L849.07 232.9Z"/>
                        <path class="shp5" d="M840.95 228.21L846.79 231.57L852.51 228.26L846.69 224.9L840.95 228.21Z"/>
                        <path class="shp5" d="M839.67 238.32L845.5 241.69L851.22 238.38L845.4 235.01L839.67 238.32Z"/>
                        <path class="shp5" d="M840.21 247.37L846.04 250.74L851.77 247.43L845.95 244.06L840.21 247.37Z"/>
                        <path class="shp5" d="M832.1 242.69L837.93 246.05L843.66 242.74L837.83 239.38L832.1 242.69Z"/>
                        <path class="shp5" d="M823.99 238L829.82 241.37L835.55 238.06L829.72 234.69L823.99 238Z"/>
                    </g>
                </g>
            </g>
            <path class="shp8" d="M910.59 123.58L818.58 170.84L776.31 146.54L776.31 45.72L910.59 123.58Z"/>
        </g>
        <g>
            <path class="shp0"
                  d="M648.16 321.99C646.24 323.09 646.24 324.93 648.16 326.04L696.52 353.95C698.45 355.06 701.61 355.06 703.53 353.95L734.09 336.07C736.02 334.95 736.02 333.14 734.09 332.03L685.74 304.1C683.81 302.99 680.66 302.99 678.73 304.1L648.16 321.99Z"/>
            <path class="shp1" d="M734.38 332.65L737.6 332.65L737.6 330.52L734.38 330.52L734.38 332.65Z"/>
            <path class="shp1" d="M650.84 322.53L648.78 322.53L648.78 320.53L650.84 320.53L650.84 322.53Z"/>
            <path class="shp1"
                  d="M650.23 320.51C648.29 321.62 648.29 323.45 650.23 324.55L698.58 352.47C700.51 353.59 703.66 353.59 705.58 352.47L736.16 334.58C738.08 333.47 738.08 331.65 736.16 330.54L687.79 302.62C685.86 301.5 682.71 301.5 680.79 302.62L650.23 320.51Z"/>
            <path class="shp9"
                  d="M736.16 332.56L705.58 350.45C703.86 351.44 701.15 351.55 699.21 350.76C699.02 350.68 698.82 350.59 698.65 350.48C698.61 350.47 698.6 350.46 698.58 350.45L698.06 350.15L695.15 348.47L666.79 332.1L665.83 331.54L650.23 322.53C648.29 321.42 648.29 319.59 650.23 318.49L680.79 300.59C682.71 299.48 685.86 299.48 687.79 300.59L702 308.79L736.16 328.52C738.08 329.63 738.08 331.45 736.16 332.56Z"/>
            <path class="shp10"
                  d="M737.58 330.41C737.64 331.19 737.17 331.97 736.16 332.56L705.58 350.45C703.86 351.44 701.15 351.55 699.21 350.76C699.02 350.68 698.82 350.59 698.65 350.48C698.61 350.47 698.6 350.46 698.58 350.45L698.06 350.15L695.15 348.47L666.79 332.1L665.83 331.54L650.23 322.53C649.21 321.94 648.73 321.16 648.78 320.39C648.83 321.09 649.32 321.77 650.23 322.3L665.83 331.3L666.79 331.86L695.15 348.23L698.06 349.92L698.58 350.21C698.6 350.22 698.61 350.23 698.65 350.26C698.82 350.35 699.02 350.44 699.21 350.52C701.15 351.31 703.86 351.21 705.58 350.21L736.16 332.32C737.07 331.79 737.54 331.11 737.58 330.41Z"/>
            <path class="shp11"
                  d="M726.7 327.28L697.23 344.54L692.08 341.57L655.62 320.53L685.1 303.26L696.82 310.03L726.7 327.28Z"/>
            <path class="shp12"
                  d="M725.85 327.77L697.23 344.54L696.65 344.21L669.93 328.79L656.4 320.97L685.03 304.21L725.85 327.77Z"/>
            <path class="shp8" d="M685.03 304.21L656.4 320.97L666.93 327.05L724.61 327.05L685.03 304.21Z"/>
            <g>
                <path class="shp1"
                      d="M712.98 337.08C712.02 337.64 712.02 338.55 712.98 339.1L714.88 340.2C715.84 340.75 717.41 340.75 718.38 340.2L720.27 339.1C721.24 338.55 721.24 337.64 720.27 337.08L718.38 335.99C717.41 335.43 715.84 335.43 714.88 335.99L712.98 337.08Z"/>
                <path class="shp3"
                      d="M715.22 339.99C715.99 340.45 717.26 340.45 718.02 339.99L719.93 338.9C720.69 338.46 720.69 337.73 719.93 337.28L718.02 336.19C717.26 335.74 715.99 335.74 715.22 336.19L713.34 337.28C712.56 337.73 712.56 338.46 713.34 338.9L715.22 339.99Z"/>
            </g>
        </g>
        <g>
            <path class="shp0"
                  d="M884.28 358.38C880.8 360.38 880.8 363.7 884.28 365.7L971.6 416.1C975.08 418.12 980.79 418.12 984.25 416.1L1039.45 383.82C1042.92 381.8 1042.92 378.52 1039.45 376.51L952.13 326.08C948.65 324.08 942.96 324.08 939.48 326.08L884.28 358.38Z"/>
            <path class="shp1" d="M1039.96 377.64L1045.77 377.64L1045.77 373.79L1039.96 373.79L1039.96 377.64Z"/>
            <path class="shp1" d="M889.1 359.37L885.38 359.37L885.38 355.76L889.1 355.76L889.1 359.37Z"/>
            <path class="shp1"
                  d="M888 355.71C884.51 357.72 884.51 361.02 888 363.02L975.31 413.43C978.8 415.45 984.5 415.45 987.96 413.43L1043.17 381.13C1046.64 379.12 1046.64 375.83 1043.17 373.82L955.83 323.41C952.35 321.39 946.67 321.39 943.19 323.41L888 355.71Z"/>
            <path class="shp9"
                  d="M1043.17 377.48L987.96 409.79C984.84 411.58 979.96 411.78 976.46 410.34C976.11 410.19 975.76 410.03 975.44 409.85C975.37 409.82 975.34 409.8 975.31 409.79L974.38 409.24L969.13 406.22L917.93 376.64L916.18 375.64L888 359.37C884.51 357.36 884.51 354.06 888 352.06L943.19 319.75C946.67 317.74 952.35 317.74 955.83 319.75L981.51 334.56L1043.17 370.18C1046.64 372.18 1046.64 375.47 1043.17 377.48Z"/>
            <path class="shp10"
                  d="M1045.75 373.6C1045.86 375.01 1044.99 376.41 1043.17 377.48L987.96 409.79C984.84 411.58 979.96 411.78 976.46 410.34C976.11 410.19 975.76 410.03 975.44 409.85C975.37 409.82 975.34 409.8 975.31 409.79L974.38 409.24L969.13 406.22L917.93 376.64L916.18 375.64L888 359.37C886.17 358.3 885.3 356.89 885.38 355.5C885.48 356.77 886.36 357.98 888 358.95L916.18 375.21L917.93 376.22L969.13 405.78L974.38 408.82L975.31 409.36C975.34 409.36 975.37 409.39 975.44 409.43C975.76 409.61 976.11 409.77 976.46 409.91C979.96 411.34 984.84 411.16 987.96 409.36L1043.17 377.04C1044.82 376.09 1045.68 374.87 1045.75 373.6Z"/>
            <path class="shp11"
                  d="M1026.1 367.95L972.88 399.11L963.59 393.75L897.75 355.75L950.97 324.57L972.14 336.8L1026.1 367.95Z"/>
            <path class="shp13"
                  d="M1024.57 368.83L972.88 399.11L971.84 398.52L923.58 370.66L899.15 356.56L950.84 326.28L1024.57 368.83Z"/>
            <path class="shp8" d="M950.84 326.28L899.15 356.56L918.16 367.54L1022.32 367.54L950.84 326.28Z"/>
            <g>
                <path class="shp1"
                      d="M1001.32 385.64C999.59 386.65 999.59 388.3 1001.32 389.29L1004.75 391.28C1006.49 392.28 1009.31 392.28 1011.07 391.28L1014.49 389.29C1016.23 388.3 1016.23 386.65 1014.49 385.64L1011.07 383.67C1009.31 382.65 1006.49 382.65 1004.75 383.67L1001.32 385.64Z"/>
                <path class="shp3"
                      d="M1005.38 390.89C1006.77 391.72 1009.05 391.72 1010.43 390.89L1013.86 388.93C1015.24 388.13 1015.24 386.81 1013.86 385.99L1010.43 384.03C1009.05 383.22 1006.77 383.22 1005.38 384.03L1001.97 385.99C1000.57 386.81 1000.57 388.13 1001.97 388.93L1005.38 390.89Z"/>
            </g>
        </g>
        <g>
            <path class="shp0"
                  d="M618.64 321.99C620.57 323.09 620.57 324.93 618.64 326.04L570.29 353.95C568.36 355.06 565.2 355.06 563.27 353.95L532.71 336.07C530.79 334.95 530.79 333.14 532.71 332.02L581.07 304.1C583 302.99 586.15 302.99 588.07 304.1L618.64 321.99Z"/>
            <path class="shp1" d="M532.42 332.65L529.21 332.65L529.21 330.52L532.42 330.52L532.42 332.65Z"/>
            <path class="shp1" d="M615.97 322.53L618.03 322.53L618.03 320.53L615.97 320.53L615.97 322.53Z"/>
            <path class="shp1"
                  d="M616.58 320.51C618.52 321.62 618.52 323.45 616.58 324.55L568.23 352.47C566.3 353.59 563.14 353.59 561.22 352.47L530.65 334.58C528.73 333.47 528.73 331.65 530.65 330.54L579.01 302.62C580.94 301.5 584.09 301.5 586.02 302.62L616.58 320.51Z"/>
            <path class="shp9"
                  d="M530.65 332.56L561.22 350.45C562.95 351.44 565.65 351.55 567.59 350.76C567.78 350.67 567.98 350.59 568.16 350.48C568.19 350.47 568.21 350.46 568.23 350.45L568.74 350.15L571.65 348.47L600.01 332.1L600.97 331.54L616.58 322.53C618.52 321.42 618.52 319.59 616.58 318.48L586.02 300.59C584.09 299.48 580.94 299.48 579.01 300.59L564.8 308.79L530.65 328.52C528.73 329.63 528.73 331.45 530.65 332.56Z"/>
            <path class="shp10"
                  d="M529.22 330.41C529.16 331.19 529.64 331.97 530.65 332.56L561.22 350.45C562.95 351.44 565.65 351.55 567.59 350.76C567.78 350.67 567.98 350.59 568.16 350.48C568.19 350.47 568.21 350.46 568.23 350.45L568.74 350.15L571.65 348.47L600.01 332.1L600.97 331.54L616.58 322.53C617.6 321.94 618.07 321.16 618.03 320.39C617.97 321.09 617.48 321.77 616.58 322.3L600.97 331.3L600.01 331.86L571.65 348.23L568.74 349.92L568.23 350.21C568.21 350.22 568.19 350.23 568.16 350.26C567.98 350.35 567.78 350.44 567.59 350.52C565.65 351.31 562.95 351.21 561.22 350.21L530.65 332.32C529.74 331.79 529.26 331.11 529.22 330.41Z"/>
            <path class="shp11"
                  d="M540.1 327.28L569.57 344.54L574.72 341.57L611.18 320.53L581.71 303.26L569.98 310.03L540.1 327.28Z"/>
            <path class="shp14"
                  d="M540.95 327.77L569.57 344.54L570.15 344.21L596.88 328.78L610.4 320.98L581.78 304.21L540.95 327.77Z"/>
            <path class="shp8" d="M581.78 304.21L610.4 320.98L599.87 327.05L542.2 327.05L581.78 304.21Z"/>
            <g>
                <path class="shp1"
                      d="M553.82 337.08C554.79 337.64 554.79 338.55 553.82 339.1L551.92 340.2C550.96 340.75 549.4 340.75 548.42 340.2L546.53 339.1C545.57 338.55 545.57 337.64 546.53 337.08L548.42 335.99C549.4 335.42 550.96 335.42 551.92 335.99L553.82 337.08Z"/>
                <path class="shp3"
                      d="M551.58 339.99C550.81 340.45 549.55 340.45 548.78 339.99L546.88 338.9C546.12 338.46 546.12 337.73 546.88 337.28L548.78 336.19C549.55 335.74 550.81 335.74 551.58 336.19L553.47 337.28C554.24 337.73 554.24 338.46 553.47 338.9L551.58 339.99Z"/>
            </g>
        </g>
        <g>
            <path class="shp0"
                  d="M396.58 357.92C400.07 359.92 400.07 363.23 396.58 365.24L309.27 415.64C305.79 417.65 300.08 417.65 296.61 415.64L241.42 383.36C237.94 381.33 237.94 378.05 241.42 376.04L328.74 325.62C332.22 323.61 337.91 323.61 341.39 325.62L396.58 357.92Z"/>
            <path class="shp1" d="M240.9 377.17L235.09 377.17L235.09 373.33L240.9 373.33L240.9 377.17Z"/>
            <path class="shp1" d="M391.76 358.9L395.48 358.9L395.48 355.3L391.76 355.3L391.76 358.9Z"/>
            <path class="shp1"
                  d="M392.86 355.25C396.36 357.25 396.36 360.56 392.86 362.56L305.55 412.97C302.07 414.99 296.37 414.99 292.9 412.97L237.7 380.67C234.23 378.66 234.23 375.36 237.7 373.36L325.03 322.94C328.52 320.93 334.2 320.93 337.68 322.94L392.86 355.25Z"/>
            <path class="shp9"
                  d="M237.7 377.02L292.9 409.32C296.02 411.12 300.9 411.32 304.4 409.88C304.75 409.73 305.11 409.57 305.42 409.38C305.49 409.36 305.52 409.34 305.55 409.32L306.48 408.78L311.74 405.75L362.94 376.18L364.69 375.18L392.86 358.9C396.36 356.9 396.36 353.6 392.86 351.6L337.68 319.29C334.2 317.28 328.52 317.28 325.03 319.29L299.36 334.09L237.7 369.71C234.23 371.72 234.23 375.01 237.7 377.02Z"/>
            <path class="shp10"
                  d="M235.12 373.14C235.01 374.55 235.87 375.95 237.7 377.02L292.9 409.32C296.02 411.12 300.9 411.32 304.4 409.88C304.75 409.73 305.11 409.57 305.42 409.38C305.49 409.36 305.52 409.34 305.55 409.32L306.48 408.78L311.74 405.75L362.94 376.18L364.69 375.18L392.86 358.9C394.7 357.84 395.57 356.43 395.48 355.04C395.38 356.3 394.5 357.52 392.86 358.48L364.69 374.75L362.94 375.75L311.74 405.32L306.48 408.36L305.55 408.89C305.52 408.9 305.49 408.93 305.42 408.97C305.11 409.14 304.75 409.31 304.4 409.45C300.9 410.88 296.02 410.7 292.9 408.89L237.7 376.58C236.05 375.63 235.19 374.4 235.12 373.14Z"/>
            <path class="shp11"
                  d="M254.77 367.49L307.99 398.65L317.28 393.29L383.12 355.29L329.9 324.11L308.72 336.34L254.77 367.49Z"/>
            <path class="shp15"
                  d="M256.3 368.37L307.99 398.65L309.02 398.06L357.29 370.2L381.71 356.1L330.03 325.81L256.3 368.37Z"/>
            <path class="shp8" d="M330.03 325.81L381.71 356.1L362.7 367.07L258.55 367.07L330.03 325.81Z"/>
            <g>
                <path class="shp1"
                      d="M279.55 385.17C281.28 386.19 281.28 387.84 279.55 388.83L276.11 390.81C274.38 391.81 271.55 391.81 269.79 390.81L266.37 388.83C264.63 387.84 264.63 386.19 266.37 385.17L269.79 383.21C271.55 382.19 274.38 382.19 276.11 383.21L279.55 385.17Z"/>
                <path class="shp3"
                      d="M275.49 390.43C274.1 391.26 271.82 391.26 270.43 390.43L267 388.47C265.63 387.66 265.63 386.35 267 385.53L270.43 383.57C271.82 382.76 274.1 382.76 275.49 383.57L278.9 385.53C280.3 386.35 280.3 387.66 278.9 388.47L275.49 390.43Z"/>
            </g>
        </g>
        <g>
            <g>
                <path class="shp0"
                      d="M66.9 381.56L70.66 383.74L70.97 383.91L87.95 393.72C91.68 395.88 97.74 395.88 101.47 393.72L109.05 389.34C112.11 387.59 112.67 384.92 110.71 382.83C110.28 382.37 109.73 381.91 109.05 381.53L88.01 369.38C87.89 369.32 87.77 369.25 87.66 369.21L87.64 369.21C87.08 368.9 86.49 368.66 85.84 368.46C82.2 367.29 77.57 367.61 74.48 369.38L74.39 369.43L72.42 370.57L66.9 373.76C65.33 374.66 64.41 375.82 64.17 377.02L64.17 377.02C63.85 378.65 64.76 380.33 66.9 381.56Z"/>
                <g>
                    <path class="shp3"
                          d="M68.38 380.11L72.13 382.28L72.44 382.45L89.42 392.26C93.15 394.42 99.21 394.42 102.94 392.26L110.53 387.88C113.58 386.12 114.14 383.46 112.19 381.38C111.75 380.9 111.2 380.46 110.53 380.06L89.48 367.91C89.37 367.85 89.24 367.79 89.13 367.74L89.12 367.74C88.55 367.44 87.96 367.19 87.32 367C83.68 365.83 79.04 366.15 75.95 367.91L75.86 367.97L73.89 369.11L68.38 372.3C66.8 373.2 65.89 374.37 65.64 375.55L65.64 375.56C65.32 377.18 66.23 378.87 68.38 380.11Z"/>
                    <path class="shp2"
                          d="M65.64 375.55L65.64 375.56C65.9 376.77 66.8 377.91 68.38 378.8L72.32 381.09L73.51 381.76L89.42 390.95C93.15 393.12 99.21 393.12 102.94 390.95L110.53 386.58C113.04 384.88 113.15 383.11 112.19 381.38C111.1 379.4 108.6 377.47 106.59 375.71C104.42 373.8 98.82 369.56 92.42 367.02C92.4 367.01 92.4 367.01 92.4 367.02C91.59 366.69 90.77 366.39 89.94 366.15C85.19 364.64 80.18 364.28 75.95 366.62L73.96 367.77L71.69 369.08L68.38 370.99C66.23 372.25 65.31 373.93 65.64 375.55Z"/>
                    <g>
                        <path class="shp3"
                              d="M72.13 382.28L72.44 382.45L73.43 382.45C73.43 382.23 73.45 381.99 73.51 381.76C74.05 378.82 77.87 374.34 82.51 371.12C82.95 370.8 83.39 370.52 83.84 370.24C84.03 370.12 84.2 370 84.39 369.9C85.61 369.18 87.26 368.35 89.12 367.74L89.13 367.74C90.19 367.39 91.28 367.13 92.4 367.02C91.59 366.69 90.77 366.39 89.94 366.15C89.1 366.36 88.21 366.63 87.32 367C86.15 367.47 84.95 368.06 83.73 368.78C83.25 369.05 82.78 369.36 82.34 369.66C81.87 369.95 81.43 370.26 81 370.58C76.59 373.8 73.16 377.94 72.32 381.09C72.2 381.5 72.13 381.91 72.13 382.28Z"/>
                    </g>
                    <g>
                        <path class="shp3"
                              d="M71.69 369.08C72.37 369.04 73.1 369.04 73.89 369.11C75.91 369.23 78.32 369.7 81 370.58C81.5 370.75 82.01 370.92 82.51 371.12C82.95 370.8 83.39 370.52 83.84 370.24C83.34 370.04 82.82 369.83 82.34 369.66C80 368.81 77.83 368.26 75.86 367.97C75.2 367.87 74.57 367.8 73.96 367.77L71.69 369.08Z"/>
                    </g>
                </g>
            </g>
            <g>
                <g>
                    <path class="shp0"
                          d="M94.47 252.56C77.05 262.61 77.05 278.91 94.47 288.96C111.87 299.02 140.1 299.02 157.51 288.96C174.92 278.91 174.92 262.61 157.51 252.56C140.1 242.5 111.87 242.5 94.47 252.56Z"/>
                    <path class="shp16"
                          d="M96.72 250.91C79.31 260.96 79.31 277.26 96.72 287.31C114.12 297.36 142.35 297.36 159.77 287.31C177.18 277.26 177.18 260.96 159.77 250.91C142.35 240.85 114.13 240.85 96.72 250.91Z"/>
                    <path class="shp2"
                          d="M83.7 267.11C83.86 269.59 84.67 272.05 86.08 274.42C88.2 277.99 91.76 281.37 96.72 284.22C114.14 294.28 142.35 294.28 159.77 284.22C177.18 274.17 177.18 257.87 159.77 247.83C154.2 244.6 147.54 242.42 140.45 241.27C140.39 241.25 140.32 241.25 140.2 241.22C136.91 240.69 133.53 240.39 130.14 240.3C128.36 240.26 126.58 240.28 124.82 240.39C114.59 240.81 104.56 243.3 96.72 247.83C87.55 253.11 83.19 260.16 83.7 267.11Z"/>
                </g>
                <path class="shp17"
                      d="M83.7 267.11C83.86 269.59 84.67 272.05 86.08 274.42L111.02 274.14L140.25 257.87L140.45 241.27C140.39 241.25 140.32 241.25 140.2 241.22C138.69 241.07 132.72 240.76 124.82 240.39C114.59 240.81 104.56 243.3 96.72 247.83C87.55 253.11 83.19 260.16 83.7 267.11Z"/>
                <g>
                    <g>
                        <path class="shp16"
                              d="M139.54 194.51L139.54 257.67L111.72 274.53L111.02 274.14L111.02 210.97C111.02 209.83 111.82 208.44 112.81 207.86L137.75 193.47C138.75 192.89 139.54 193.36 139.54 194.51Z"/>
                        <path class="shp18"
                              d="M140.25 194.71L140.25 257.87L111.72 274.34L111.72 211.17C111.72 210.03 112.53 208.64 113.52 208.06L138.45 193.66C139.45 193.1 140.25 193.56 140.25 194.71Z"/>
                        <path class="shp19"
                              d="M140.25 159.19L140.25 222.36L111.72 238.82L111.72 175.66C111.72 174.51 112.53 173.12 113.52 172.54L138.45 158.15C139.45 157.57 140.25 158.05 140.25 159.19Z"/>
                        <path class="shp16"
                              d="M140.25 194.9L140.25 201.4L111.72 217.86L111.72 211.37C111.72 210.21 112.53 208.83 113.52 208.26L138.45 193.86C139.44 193.29 140.25 193.75 140.25 194.9Z"/>
                    </g>
                </g>
                <path class="shp3"
                      d="M7.05 132.33L227.28 5.19C228.96 4.21 230.48 4.12 231.58 4.75L231.59 4.75L236.02 7.34L233.3 7.9C233.34 8.17 233.37 8.41 233.37 8.7L233.38 153.09C233.38 160.87 227.91 170.32 221.18 174.22L13.15 294.31C6.41 298.21 0.94 295.06 0.94 287.28L0.94 142.9C0.94 139.01 3.68 134.28 7.05 132.33Z"/>
                <path class="shp9"
                      d="M5.4 289.85C5.4 297.63 10.86 300.79 17.6 296.89L225.63 176.8C232.36 172.91 237.82 163.45 237.82 155.68L237.82 11.28C237.82 7.39 235.09 5.81 231.72 7.76L11.5 134.91C8.13 136.86 5.4 141.58 5.4 145.46L5.4 289.85Z"/>
                <path class="shp20" d="M13.05 279.81L230.18 154.45L230.17 16.4L13.05 141.77L13.05 279.81Z"/>
                <path class="shp8" d="M13.05 141.77L13.05 279.81L101.56 228.71L200.19 33.71L13.05 141.77Z"/>
            </g>
            <g>
                <path class="shp0"
                      d="M300.39 277.23C301.64 277.95 301.64 279.11 300.39 279.84L149.56 366.92C148.31 367.64 146.29 367.64 145.04 366.92L99.65 340.72C98.41 340 98.41 338.83 99.65 338.11L250.49 251.03C251.74 250.3 253.76 250.3 255.01 251.03L300.39 277.23Z"/>
                <g>
                    <path class="shp21" d="M300.46 276.85L303.35 276.85L303.35 274.27L300.46 274.27L300.46 276.85Z"/>
                    <path class="shp21" d="M103.43 335.01L100.74 335.01L100.74 337.68L103.43 337.68L103.43 335.01Z"/>
                    <path class="shp21"
                          d="M302.41 275.53C303.66 276.25 303.66 277.42 302.41 278.14L151.58 365.23C150.33 365.95 148.31 365.95 147.06 365.23L101.68 339.03C100.43 338.3 100.43 337.14 101.68 336.42L252.51 249.33C253.76 248.61 255.78 248.61 257.03 249.33L302.41 275.53Z"/>
                    <g>
                        <path class="shp2"
                              d="M302.41 272.92C303.66 273.64 303.66 274.81 302.41 275.53L151.58 362.62C150.33 363.34 148.31 363.34 147.06 362.62L101.68 336.42C100.43 335.7 100.43 334.53 101.68 333.81L252.51 246.72C253.76 246 255.78 246 257.03 246.72L302.41 272.92Z"/>
                        <g>
                            <path class="shp22"
                                  d="M118.41 333.54L110.5 338.1L108.25 336.8L116.15 332.23L118.41 333.54Z"/>
                            <path class="shp22"
                                  d="M123.75 339.45L118.3 342.6L112.65 339.33L118.1 336.19L123.75 339.45Z"/>
                            <path class="shp22"
                                  d="M126.28 328.99L120.64 332.25L118.38 330.94L124.03 327.68L126.28 328.99Z"/>
                            <path class="shp22"
                                  d="M134.41 324.3L128.77 327.55L126.51 326.25L132.16 322.99L134.41 324.3Z"/>
                            <path class="shp22"
                                  d="M142.54 319.6L136.9 322.86L134.64 321.56L140.28 318.3L142.54 319.6Z"/>
                            <path class="shp22"
                                  d="M150.67 314.91L145.03 318.16L142.77 316.86L148.41 313.61L150.67 314.91Z"/>
                            <path class="shp22"
                                  d="M158.8 310.21L153.15 313.47L150.9 312.17L156.54 308.91L158.8 310.21Z"/>
                            <path class="shp22"
                                  d="M166.93 305.52L161.29 308.78L159.03 307.47L164.67 304.22L166.93 305.52Z"/>
                            <path class="shp22"
                                  d="M175.06 300.83L169.41 304.09L167.15 302.78L172.8 299.52L175.06 300.83Z"/>
                            <path class="shp22"
                                  d="M183.19 296.13L177.54 299.39L175.29 298.09L180.93 294.83L183.19 296.13Z"/>
                            <path class="shp22"
                                  d="M191.32 291.44L185.67 294.7L183.41 293.4L189.06 290.13L191.32 291.44Z"/>
                            <path class="shp22"
                                  d="M199.45 286.75L193.8 290.01L191.54 288.7L197.18 285.44L199.45 286.75Z"/>
                            <path class="shp22"
                                  d="M209.83 280.75L204.19 284.01L201.93 282.7L207.57 279.45L209.83 280.75Z"/>
                            <path class="shp22"
                                  d="M217.96 276.06L212.31 279.32L210.06 278.01L215.7 274.75L217.96 276.06Z"/>
                            <path class="shp22" d="M225.9 271.47L220.26 274.73L218 273.42L223.65 270.17L225.9 271.47Z"/>
                            <path class="shp22"
                                  d="M236.11 265.58L230.46 268.83L228.21 267.54L233.85 264.28L236.11 265.58Z"/>
                            <path class="shp22"
                                  d="M244.05 260.99L238.41 264.25L236.15 262.95L241.79 259.69L244.05 260.99Z"/>
                            <path class="shp22" d="M252 256.41L246.35 259.67L244.09 258.36L249.74 255.1L252 256.41Z"/>
                            <path class="shp22"
                                  d="M259.94 251.82L254.3 255.08L252.04 253.77L257.68 250.51L259.94 251.82Z"/>
                            <path class="shp22"
                                  d="M134.44 342.79L126.53 347.35L120.89 344.1L128.79 339.53L134.44 342.79Z"/>
                            <path class="shp22"
                                  d="M147.2 344.94L134.78 352.11L129.13 348.85L141.55 341.68L147.2 344.94Z"/>
                            <path class="shp22"
                                  d="M151.38 352.05L143.02 356.87L137.38 353.61L145.73 348.79L151.38 352.05Z"/>
                            <path class="shp22"
                                  d="M131.34 335.07L125.88 338.21L120.24 334.95L125.69 331.81L131.34 335.07Z"/>
                            <path class="shp22"
                                  d="M138.93 330.68L133.47 333.83L127.83 330.57L133.28 327.42L138.93 330.68Z"/>
                            <path class="shp22"
                                  d="M146.52 326.3L141.06 329.45L135.42 326.19L140.87 323.05L146.52 326.3Z"/>
                            <path class="shp22"
                                  d="M154.11 321.92L148.65 325.07L143.01 321.81L148.46 318.66L154.11 321.92Z"/>
                            <path class="shp22"
                                  d="M161.7 317.54L156.24 320.69L150.6 317.43L156.05 314.28L161.7 317.54Z"/>
                            <path class="shp22"
                                  d="M169.29 313.16L163.83 316.3L158.19 313.04L163.64 309.9L169.29 313.16Z"/>
                            <path class="shp22"
                                  d="M176.88 308.77L171.42 311.92L165.78 308.66L171.23 305.51L176.88 308.77Z"/>
                            <path class="shp22"
                                  d="M184.47 304.39L179.01 307.54L173.37 304.28L178.82 301.13L184.47 304.39Z"/>
                            <path class="shp22"
                                  d="M192.06 300.01L186.6 303.16L180.96 299.9L186.41 296.75L192.06 300.01Z"/>
                            <path class="shp22"
                                  d="M199.64 295.63L194.19 298.77L188.55 295.52L194 292.37L199.64 295.63Z"/>
                            <path class="shp22"
                                  d="M155.41 340.2L149.96 343.35L144.31 340.09L149.77 336.94L155.41 340.2Z"/>
                            <path class="shp22" d="M163 335.82L157.55 338.97L151.9 335.71L157.36 332.56L163 335.82Z"/>
                            <path class="shp22"
                                  d="M170.59 331.43L165.14 334.58L159.49 331.33L164.94 328.18L170.59 331.43Z"/>
                            <path class="shp22"
                                  d="M178.18 327.05L172.73 330.2L167.08 326.94L172.53 323.8L178.18 327.05Z"/>
                            <path class="shp22"
                                  d="M185.77 322.67L180.32 325.82L174.67 322.56L180.13 319.41L185.77 322.67Z"/>
                            <path class="shp22"
                                  d="M193.36 318.29L187.91 321.44L182.26 318.18L187.71 315.03L193.36 318.29Z"/>
                            <path class="shp22"
                                  d="M200.95 313.91L195.5 317.06L189.85 313.8L195.3 310.65L200.95 313.91Z"/>
                            <path class="shp22"
                                  d="M208.54 309.53L203.09 312.67L197.44 309.41L202.89 306.27L208.54 309.53Z"/>
                            <path class="shp22"
                                  d="M216.13 305.14L210.67 308.29L205.03 305.03L210.48 301.88L216.13 305.14Z"/>
                            <path class="shp22"
                                  d="M223.58 300.84L218.13 303.99L212.48 300.73L217.93 297.58L223.58 300.84Z"/>
                            <path class="shp22"
                                  d="M207.24 291.24L201.78 294.39L196.14 291.13L201.59 287.98L207.24 291.24Z"/>
                            <path class="shp22"
                                  d="M142.4 338.07L136.95 341.21L131.3 337.95L136.76 334.8L142.4 338.07Z"/>
                            <path class="shp22"
                                  d="M149.99 333.68L144.54 336.83L138.9 333.57L144.34 330.42L149.99 333.68Z"/>
                            <path class="shp22"
                                  d="M157.58 329.3L152.13 332.45L146.48 329.19L151.93 326.04L157.58 329.3Z"/>
                            <path class="shp22"
                                  d="M165.17 324.91L159.72 328.07L154.07 324.8L159.53 321.66L165.17 324.91Z"/>
                            <path class="shp22"
                                  d="M172.76 320.54L167.31 323.68L161.66 320.42L167.12 317.28L172.76 320.54Z"/>
                            <path class="shp22"
                                  d="M180.35 316.15L174.9 319.3L169.25 316.05L174.71 312.89L180.35 316.15Z"/>
                            <path class="shp22"
                                  d="M187.94 311.77L182.49 314.92L176.84 311.66L182.3 308.51L187.94 311.77Z"/>
                            <path class="shp22"
                                  d="M195.53 307.39L190.08 310.54L184.43 307.28L189.88 304.13L195.53 307.39Z"/>
                            <path class="shp22"
                                  d="M203.12 303.01L197.67 306.16L192.02 302.9L197.48 299.75L203.12 303.01Z"/>
                            <path class="shp22"
                                  d="M215.36 295.94L205.26 301.77L199.61 298.51L209.72 292.68L215.36 295.94Z"/>
                            <path class="shp22"
                                  d="M158.89 347.58L153.43 350.73L147.79 347.47L153.24 344.32L158.89 347.58Z"/>
                            <path class="shp22"
                                  d="M155.38 343.09L161.02 346.35L212.01 316.9L206.37 313.64L155.38 343.09Z"/>
                            <path class="shp22"
                                  d="M219.6 312.53L214.15 315.67L208.51 312.41L213.96 309.27L219.6 312.53Z"/>
                            <path class="shp22"
                                  d="M231.85 305.45L221.74 311.29L216.1 308.03L226.2 302.2L231.85 305.45Z"/>
                            <path class="shp22"
                                  d="M246.43 271.48L240.74 274.77L235.09 271.51L240.79 268.22L246.43 271.48Z"/>
                            <path class="shp22"
                                  d="M254.36 266.91L248.67 270.19L243.02 266.94L248.72 263.64L254.36 266.91Z"/>
                            <path class="shp22"
                                  d="M262.29 262.33L256.59 265.62L250.95 262.35L256.64 259.07L262.29 262.33Z"/>
                            <path class="shp22"
                                  d="M270.21 257.75L264.52 261.04L258.88 257.78L264.57 254.49L270.21 257.75Z"/>
                            <path class="shp22"
                                  d="M253.66 275.65L247.96 278.94L242.32 275.68L248.01 272.4L253.66 275.65Z"/>
                            <path class="shp22"
                                  d="M261.58 271.08L255.89 274.36L250.25 271.11L255.94 267.82L261.58 271.08Z"/>
                            <path class="shp22"
                                  d="M269.51 266.5L263.82 269.79L258.17 266.53L263.87 263.24L269.51 266.5Z"/>
                            <path class="shp22"
                                  d="M277.44 261.92L271.75 265.21L266.1 261.95L271.8 258.66L277.44 261.92Z"/>
                            <path class="shp22"
                                  d="M260.88 279.82L255.19 283.11L249.54 279.86L255.24 276.57L260.88 279.82Z"/>
                            <path class="shp22"
                                  d="M268.81 275.25L263.12 278.54L257.47 275.28L263.17 271.99L268.81 275.25Z"/>
                            <path class="shp22"
                                  d="M276.74 270.67L271.04 273.96L265.4 270.7L271.09 267.41L276.74 270.67Z"/>
                            <path class="shp22"
                                  d="M276.26 279.55L262.64 287.41L257 284.16L270.62 276.29L276.26 279.55Z"/>
                            <path class="shp22"
                                  d="M284.19 274.97L278.5 278.26L272.85 275L278.55 271.72L284.19 274.97Z"/>
                            <path class="shp22"
                                  d="M292.12 270.39L286.42 273.68L273.32 266.12L279.02 262.83L292.12 270.39Z"/>
                            <path class="shp22"
                                  d="M217.72 285.19L211.98 288.51L206.33 285.25L212.07 281.93L217.72 285.19Z"/>
                            <path class="shp22"
                                  d="M225.7 280.58L219.97 283.89L214.32 280.64L220.06 277.32L225.7 280.58Z"/>
                            <path class="shp22"
                                  d="M233.7 275.97L227.96 279.28L222.31 276.02L228.05 272.71L233.7 275.97Z"/>
                            <path class="shp22"
                                  d="M225.17 289.5L219.43 292.81L213.79 289.55L219.52 286.24L225.17 289.5Z"/>
                            <path class="shp22"
                                  d="M233.16 284.88L227.42 288.2L221.77 284.94L227.51 281.62L233.16 284.88Z"/>
                            <path class="shp22"
                                  d="M241.15 280.27L235.41 283.59L229.76 280.32L235.5 277.01L241.15 280.27Z"/>
                            <path class="shp22"
                                  d="M242.41 290.23L236.68 293.54L231.03 290.28L236.77 286.97L242.41 290.23Z"/>
                            <path class="shp22"
                                  d="M241.88 299.14L236.14 302.46L230.49 299.2L236.23 295.88L241.88 299.14Z"/>
                            <path class="shp22"
                                  d="M249.87 294.53L244.13 297.85L238.48 294.58L244.22 291.27L249.87 294.53Z"/>
                            <path class="shp22"
                                  d="M257.86 289.91L252.12 293.23L246.47 289.97L252.21 286.66L257.86 289.91Z"/>
                        </g>
                    </g>
                </g>
            </g>
        </g>
        <g>
            <g>
                <path class="shp0"
                      d="M1216.05 376.77L1212.29 378.94L1211.98 379.11L1195 388.91C1191.27 391.08 1185.21 391.08 1181.48 388.91L1173.89 384.54C1170.84 382.78 1170.28 380.11 1172.23 378.04C1172.67 377.56 1173.22 377.11 1173.89 376.73L1194.94 364.57C1195.06 364.51 1195.18 364.45 1195.3 364.4L1195.31 364.4C1195.87 364.1 1196.46 363.86 1197.11 363.65C1200.74 362.49 1205.38 362.81 1208.47 364.57L1208.56 364.63L1210.54 365.77L1216.05 368.96C1217.62 369.86 1218.54 371.03 1218.78 372.22L1218.78 372.22C1219.1 373.84 1218.2 375.53 1216.05 376.77Z"/>
                <g>
                    <path class="shp3"
                          d="M1214.57 375.3L1210.81 377.48L1210.51 377.65L1193.53 387.45C1189.8 389.62 1183.74 389.62 1180.01 387.45L1172.42 383.08C1169.37 381.32 1168.81 378.65 1170.76 376.57C1171.2 376.1 1171.75 375.65 1172.42 375.26L1193.47 363.12C1193.58 363.05 1193.7 362.99 1193.82 362.94L1193.83 362.94C1194.39 362.64 1194.99 362.4 1195.63 362.2C1199.27 361.03 1203.91 361.35 1207 363.12L1207.09 363.17L1209.06 364.31L1214.57 367.5C1216.15 368.4 1217.06 369.56 1217.31 370.75L1217.31 370.76C1217.63 372.38 1216.72 374.07 1214.57 375.3Z"/>
                    <path class="shp2"
                          d="M1217.31 370.75L1217.31 370.76C1217.05 371.96 1216.15 373.11 1214.57 374L1210.63 376.29L1209.44 376.96L1193.53 386.15C1189.8 388.31 1183.74 388.31 1180.01 386.15L1172.42 381.77C1169.91 380.08 1169.8 378.31 1170.76 376.57C1171.85 374.6 1174.35 372.67 1176.36 370.9C1178.53 369 1184.13 364.76 1190.53 362.22C1190.54 362.21 1190.55 362.21 1190.55 362.22C1191.36 361.88 1192.18 361.59 1193.01 361.34C1197.76 359.84 1202.76 359.48 1207 361.82L1208.99 362.97L1211.26 364.28L1214.57 366.19C1216.72 367.45 1217.64 369.13 1217.31 370.75Z"/>
                    <g>
                        <path class="shp3"
                              d="M1210.81 377.48L1210.51 377.65L1209.52 377.65C1209.52 377.43 1209.5 377.19 1209.44 376.96C1208.89 374.01 1205.08 369.54 1200.44 366.31C1200 366 1199.56 365.71 1199.11 365.44C1198.92 365.31 1198.75 365.2 1198.56 365.1C1197.34 364.38 1195.68 363.54 1193.83 362.94L1193.82 362.94C1192.76 362.59 1191.67 362.33 1190.55 362.22C1191.36 361.88 1192.18 361.59 1193.01 361.34C1193.85 361.55 1194.73 361.83 1195.63 362.2C1196.8 362.67 1198 363.26 1199.22 363.98C1199.7 364.25 1200.17 364.55 1200.62 364.86C1201.08 365.15 1201.52 365.46 1201.95 365.78C1206.36 369 1209.8 373.14 1210.63 376.29C1210.75 376.7 1210.81 377.11 1210.81 377.48Z"/>
                    </g>
                    <g>
                        <path class="shp3"
                              d="M1211.26 364.28C1210.58 364.24 1209.85 364.24 1209.06 364.31C1207.04 364.43 1204.63 364.89 1201.95 365.78C1201.44 365.95 1200.94 366.12 1200.44 366.31C1200 366 1199.56 365.71 1199.11 365.44C1199.62 365.23 1200.13 365.03 1200.62 364.86C1202.95 364 1205.13 363.46 1207.09 363.17C1207.75 363.07 1208.38 363 1208.99 362.97L1211.26 364.28Z"/>
                    </g>
                </g>
            </g>
            <g>
                <g>
                    <path class="shp0"
                          d="M1195.54 248.19C1212.95 258.24 1212.95 274.55 1195.54 284.6C1178.13 294.65 1149.9 294.65 1132.49 284.6C1115.08 274.55 1115.08 258.24 1132.49 248.19C1149.9 238.14 1178.13 238.14 1195.54 248.19Z"/>
                    <path class="shp16"
                          d="M1193.29 246.54C1210.7 256.59 1210.7 272.89 1193.29 282.95C1175.88 293 1147.65 293 1130.22 282.95C1112.82 272.89 1112.82 256.59 1130.22 246.54C1147.65 236.48 1175.87 236.48 1193.29 246.54Z"/>
                    <path class="shp2"
                          d="M1206.3 262.75C1206.14 265.22 1205.33 267.68 1203.92 270.05C1201.8 273.63 1198.24 277 1193.29 279.85C1175.86 289.91 1147.65 289.91 1130.23 279.85C1112.82 269.8 1112.82 253.5 1130.23 243.46C1135.8 240.23 1142.46 238.05 1149.55 236.9C1149.61 236.88 1149.69 236.88 1149.8 236.86C1153.09 236.33 1156.47 236.02 1159.86 235.94C1161.64 235.89 1163.42 235.91 1165.18 236.02C1175.42 236.44 1185.44 238.93 1193.29 243.46C1202.45 248.74 1206.81 255.79 1206.3 262.75Z"/>
                </g>
                <path class="shp17"
                      d="M1206.3 262.75C1206.14 265.22 1205.33 267.68 1203.92 270.05L1178.98 269.78L1149.75 253.5L1149.55 236.9C1149.61 236.88 1149.69 236.88 1149.8 236.86C1151.31 236.7 1157.28 236.39 1165.18 236.02C1175.42 236.44 1185.44 238.93 1193.29 243.46C1202.45 248.74 1206.81 255.79 1206.3 262.75Z"/>
                <g>
                    <g>
                        <path class="shp16"
                              d="M1150.46 190.14L1150.46 253.3L1178.28 270.17L1178.98 269.78L1178.98 206.61C1178.98 205.46 1178.18 204.07 1177.18 203.5L1152.25 189.1C1151.25 188.53 1150.46 188.99 1150.46 190.14Z"/>
                        <path class="shp18"
                              d="M1149.75 190.34L1149.75 253.5L1178.28 269.97L1178.28 206.8C1178.28 205.66 1177.47 204.27 1176.48 203.69L1151.55 189.3C1150.55 188.73 1149.75 189.19 1149.75 190.34Z"/>
                        <path class="shp19"
                              d="M1149.75 154.82L1149.75 217.99L1178.28 234.45L1178.28 171.29C1178.28 170.14 1177.47 168.75 1176.48 168.18L1151.55 153.78C1150.55 153.2 1149.75 153.68 1149.75 154.82Z"/>
                        <path class="shp16"
                              d="M1149.75 190.53L1149.75 197.03L1178.28 213.49L1178.28 207C1178.28 205.84 1177.47 204.46 1176.48 203.9L1151.55 189.49C1150.56 188.92 1149.75 189.38 1149.75 190.53Z"/>
                    </g>
                </g>
                <path class="shp3"
                      d="M1282.95 127.97L1062.72 0.82C1061.04 -0.15 1059.52 -0.25 1058.42 0.39L1058.41 0.39L1053.98 2.97L1056.7 3.53C1056.66 3.8 1056.63 4.05 1056.63 4.33L1056.62 148.72C1056.62 156.5 1062.09 165.96 1068.82 169.85L1276.85 289.95C1283.59 293.84 1289.06 290.69 1289.06 282.91L1289.06 138.53C1289.06 134.64 1286.32 129.91 1282.95 127.97Z"/>
                <path class="shp9"
                      d="M1284.6 285.48C1284.6 293.27 1279.14 296.42 1272.4 292.53L1064.37 172.43C1057.64 168.54 1052.18 159.08 1052.18 151.31L1052.18 6.91C1052.18 3.02 1054.91 1.45 1058.28 3.39L1278.51 130.54C1281.87 132.49 1284.6 137.22 1284.6 141.09L1284.6 285.48Z"/>
                <path class="shp23" d="M1276.95 275.44L1059.82 150.08L1059.82 12.04L1276.95 137.4L1276.95 275.44Z"/>
                <path class="shp8" d="M1059.82 12.04L1059.82 150.08L1132.59 192.09L1252.71 123.4L1059.82 12.04Z"/>
            </g>
            <g>
                <path class="shp21" d="M980.23 274.9L977.21 274.9L977.21 272.21L980.23 272.21L980.23 274.9Z"/>
                <path class="shp21" d="M1186.36 335.75L1189.17 335.75L1189.17 338.54L1186.36 338.54L1186.36 335.75Z"/>
                <path class="shp21"
                      d="M978.19 273.53C976.89 274.28 976.89 275.5 978.19 276.25L1135.99 367.36C1137.3 368.12 1139.41 368.12 1140.71 367.36L1188.19 339.95C1189.5 339.19 1189.5 337.97 1188.19 337.22L1030.4 246.11C1029.09 245.36 1026.98 245.36 1025.67 246.11L978.19 273.53Z"/>
                <path class="shp2"
                      d="M978.19 270.8C976.89 271.55 976.89 272.77 978.19 273.53L1135.99 364.63C1137.3 365.39 1139.41 365.39 1140.71 364.63L1188.19 337.22C1189.5 336.47 1189.5 335.24 1188.19 334.49L1030.4 243.38C1029.09 242.63 1026.98 242.63 1025.67 243.38L978.19 270.8Z"/>
                <g>
                    <path class="shp22"
                          d="M1107.09 297.94L1115.36 302.71L1117.72 301.35L1109.45 296.57L1107.09 297.94Z"/>
                    <path class="shp22"
                          d="M1101.51 304.13L1107.21 307.42L1113.11 304.01L1107.41 300.71L1101.51 304.13Z"/>
                    <path class="shp22"
                          d="M1098.85 293.18L1104.76 296.59L1107.12 295.23L1101.21 291.82L1098.85 293.18Z"/>
                    <path class="shp22"
                          d="M1090.35 288.27L1096.25 291.68L1098.61 290.32L1092.71 286.91L1090.35 288.27Z"/>
                    <path class="shp22" d="M1081.84 283.36L1087.75 286.77L1090.11 285.4L1084.2 282L1081.84 283.36Z"/>
                    <path class="shp22" d="M1073.34 278.45L1079.24 281.86L1081.6 280.5L1075.7 277.09L1073.34 278.45Z"/>
                    <path class="shp22" d="M1064.84 273.54L1070.74 276.95L1073.1 275.59L1067.2 272.18L1064.84 273.54Z"/>
                    <path class="shp22"
                          d="M1056.33 268.63L1062.24 272.04L1064.6 270.67L1058.69 267.27L1056.33 268.63Z"/>
                    <path class="shp22"
                          d="M1047.83 263.72L1053.73 267.13L1056.09 265.77L1050.19 262.36L1047.83 263.72Z"/>
                    <path class="shp22"
                          d="M1039.32 258.81L1045.23 262.22L1047.59 260.86L1041.69 257.45L1039.32 258.81Z"/>
                    <path class="shp22" d="M1030.82 253.9L1036.72 257.31L1039.09 255.95L1033.18 252.54L1030.82 253.9Z"/>
                    <path class="shp22"
                          d="M1022.31 248.99L1028.22 252.4L1030.58 251.04L1024.68 247.63L1022.31 248.99Z"/>
                    <path class="shp22"
                          d="M1090.32 307.62L1098.59 312.39L1104.49 308.99L1096.22 304.21L1090.32 307.62Z"/>
                    <path class="shp22"
                          d="M1076.97 309.87L1089.96 317.37L1095.87 313.96L1082.88 306.46L1076.97 309.87Z"/>
                    <path class="shp22" d="M1072.6 317.3L1081.34 322.35L1087.25 318.94L1078.51 313.89L1072.6 317.3Z"/>
                    <path class="shp22"
                          d="M1093.56 299.54L1099.27 302.83L1105.17 299.42L1099.47 296.13L1093.56 299.54Z"/>
                    <path class="shp22"
                          d="M1085.63 294.95L1091.33 298.25L1097.24 294.84L1091.53 291.55L1085.63 294.95Z"/>
                    <path class="shp22"
                          d="M1077.68 290.37L1083.39 293.66L1089.29 290.25L1083.59 286.96L1077.68 290.37Z"/>
                    <path class="shp22"
                          d="M1069.74 285.79L1075.45 289.08L1081.35 285.67L1075.65 282.38L1069.74 285.79Z"/>
                    <path class="shp22" d="M1061.8 281.2L1067.51 284.49L1073.41 281.09L1067.71 277.79L1061.8 281.2Z"/>
                    <path class="shp22"
                          d="M1053.87 276.62L1059.57 279.91L1065.47 276.5L1059.77 273.21L1053.87 276.62Z"/>
                    <path class="shp22"
                          d="M1045.92 272.03L1051.63 275.33L1057.53 271.92L1051.83 268.62L1045.92 272.03Z"/>
                    <path class="shp22"
                          d="M1037.98 267.45L1043.69 270.74L1049.59 267.33L1043.89 264.04L1037.98 267.45Z"/>
                    <path class="shp22"
                          d="M1030.04 262.86L1035.75 266.16L1041.65 262.75L1035.95 259.45L1030.04 262.86Z"/>
                    <path class="shp22" d="M1022.1 258.28L1027.81 261.57L1033.71 258.16L1028.01 254.87L1022.1 258.28Z"/>
                    <path class="shp22" d="M1068.38 304.91L1074.09 308.2L1079.99 304.8L1074.29 301.5L1068.38 304.91Z"/>
                    <path class="shp22"
                          d="M1060.44 300.33L1066.14 303.62L1072.05 300.21L1066.34 296.92L1060.44 300.33Z"/>
                    <path class="shp22" d="M1052.5 295.74L1058.2 299.04L1064.11 295.63L1058.41 292.33L1052.5 295.74Z"/>
                    <path class="shp22"
                          d="M1044.56 291.16L1050.26 294.45L1056.17 291.04L1050.46 287.75L1044.56 291.16Z"/>
                    <path class="shp22"
                          d="M1036.62 286.57L1042.32 289.87L1048.23 286.46L1042.52 283.17L1036.62 286.57Z"/>
                    <path class="shp22"
                          d="M1028.68 281.99L1034.38 285.28L1040.29 281.88L1034.58 278.58L1028.68 281.99Z"/>
                    <path class="shp22" d="M1020.74 277.41L1026.44 280.7L1032.35 277.29L1026.64 274L1020.74 277.41Z"/>
                    <path class="shp22" d="M1012.8 272.82L1018.5 276.11L1024.41 272.71L1018.71 269.41L1012.8 272.82Z"/>
                    <path class="shp22"
                          d="M1004.86 268.24L1010.56 271.53L1016.47 268.12L1010.77 264.83L1004.86 268.24Z"/>
                    <path class="shp22" d="M997.06 263.74L1002.77 267.03L1008.67 263.62L1002.97 260.33L997.06 263.74Z"/>
                    <path class="shp22"
                          d="M1014.16 253.69L1019.87 256.99L1025.77 253.58L1020.07 250.29L1014.16 253.69Z"/>
                    <path class="shp22"
                          d="M1081.99 302.68L1087.69 305.97L1093.6 302.56L1087.89 299.27L1081.99 302.68Z"/>
                    <path class="shp22"
                          d="M1074.05 298.09L1079.75 301.39L1085.66 297.98L1079.95 294.68L1074.05 298.09Z"/>
                    <path class="shp22" d="M1066.11 293.51L1071.81 296.8L1077.72 293.39L1072.01 290.1L1066.11 293.51Z"/>
                    <path class="shp22"
                          d="M1058.17 288.92L1063.87 292.22L1069.78 288.81L1064.07 285.51L1058.17 288.92Z"/>
                    <path class="shp22"
                          d="M1050.23 284.34L1055.93 287.63L1061.84 284.22L1056.13 280.93L1050.23 284.34Z"/>
                    <path class="shp22" d="M1042.29 279.75L1047.99 283.05L1053.9 279.64L1048.2 276.35L1042.29 279.75Z"/>
                    <path class="shp22"
                          d="M1034.35 275.17L1040.05 278.46L1045.96 275.05L1040.25 271.76L1034.35 275.17Z"/>
                    <path class="shp22"
                          d="M1026.41 270.59L1032.11 273.88L1038.02 270.47L1032.31 267.18L1026.41 270.59Z"/>
                    <path class="shp22" d="M1018.47 266L1024.17 269.3L1030.08 265.89L1024.38 262.59L1018.47 266Z"/>
                    <path class="shp22" d="M1005.66 258.61L1016.23 264.71L1022.14 261.3L1011.56 255.2L1005.66 258.61Z"/>
                    <path class="shp22"
                          d="M1064.74 312.63L1070.45 315.92L1076.35 312.52L1070.65 309.22L1064.74 312.63Z"/>
                    <path class="shp22"
                          d="M1068.41 307.93L1062.51 311.34L1009.16 280.54L1015.07 277.13L1068.41 307.93Z"/>
                    <path class="shp22"
                          d="M1001.22 275.96L1006.93 279.25L1012.83 275.84L1007.13 272.55L1001.22 275.96Z"/>
                    <path class="shp22" d="M988.41 268.56L998.99 274.67L1004.89 271.26L994.32 265.15L988.41 268.56Z"/>
                </g>
                <g>
                    <path class="shp22"
                          d="M1171.28 335.05L1177.18 338.46L1179.54 337.1L1173.64 333.69L1171.28 335.05Z"/>
                    <path class="shp22"
                          d="M1162.96 330.25L1168.87 333.66L1171.23 332.3L1165.33 328.88L1162.96 330.25Z"/>
                    <path class="shp22"
                          d="M1154.65 325.45L1160.56 328.86L1162.92 327.5L1157.02 324.09L1154.65 325.45Z"/>
                    <path class="shp22" d="M1146.34 320.65L1152.25 324.06L1154.61 322.7L1148.7 319.29L1146.34 320.65Z"/>
                    <path class="shp22"
                          d="M1160.47 341.22L1166.43 344.66L1172.34 341.25L1166.38 337.81L1160.47 341.22Z"/>
                    <path class="shp22"
                          d="M1152.18 336.43L1158.14 339.88L1164.05 336.47L1158.08 333.03L1152.18 336.43Z"/>
                    <path class="shp22"
                          d="M1143.88 331.65L1149.84 335.09L1155.75 331.68L1149.79 328.24L1143.88 331.65Z"/>
                    <path class="shp22" d="M1135.59 326.86L1141.55 330.3L1147.46 326.89L1141.5 323.45L1135.59 326.86Z"/>
                    <path class="shp22"
                          d="M1152.91 345.59L1158.87 349.03L1164.78 345.62L1158.82 342.18L1152.91 345.59Z"/>
                    <path class="shp22" d="M1144.62 340.8L1150.58 344.24L1156.48 340.83L1150.53 337.39L1144.62 340.8Z"/>
                    <path class="shp22"
                          d="M1136.33 336.01L1142.28 339.45L1148.19 336.04L1142.23 332.6L1136.33 336.01Z"/>
                    <path class="shp22"
                          d="M1128.03 331.22L1133.99 334.66L1139.9 331.25L1133.94 327.81L1128.03 331.22Z"/>
                    <path class="shp22"
                          d="M1145.36 349.95L1151.31 353.39L1157.22 349.98L1151.26 346.54L1145.36 349.95Z"/>
                    <path class="shp22"
                          d="M1137.06 345.16L1143.02 348.61L1148.92 345.2L1142.97 341.75L1137.06 345.16Z"/>
                    <path class="shp22"
                          d="M1128.77 340.37L1134.72 343.82L1140.63 340.41L1134.67 336.97L1128.77 340.37Z"/>
                    <path class="shp22"
                          d="M1129.27 349.67L1143.52 357.89L1149.42 354.48L1135.17 346.25L1129.27 349.67Z"/>
                    <path class="shp22"
                          d="M1120.97 344.88L1126.93 348.32L1132.84 344.91L1126.88 341.47L1120.97 344.88Z"/>
                    <path class="shp22"
                          d="M1112.68 340.09L1118.63 343.53L1132.34 335.62L1126.38 332.18L1112.68 340.09Z"/>
                </g>
                <g>
                    <path class="shp22"
                          d="M1136.16 315.06L1142.06 318.47L1144.43 317.11L1138.52 313.7L1136.16 315.06Z"/>
                    <path class="shp22"
                          d="M1127.65 310.15L1133.56 313.56L1135.92 312.2L1130.02 308.79L1127.65 310.15Z"/>
                    <path class="shp22" d="M1119.35 305.35L1125.25 308.76L1127.62 307.4L1121.7 303.99L1119.35 305.35Z"/>
                    <path class="shp22"
                          d="M1127.91 319.71L1133.92 323.17L1139.82 319.77L1133.82 316.3L1127.91 319.71Z"/>
                    <path class="shp22"
                          d="M1119.55 314.88L1125.56 318.35L1131.46 314.94L1125.46 311.47L1119.55 314.88Z"/>
                    <path class="shp22" d="M1111.2 310.06L1117.2 313.52L1123.1 310.11L1117.1 306.65L1111.2 310.06Z"/>
                    <path class="shp22"
                          d="M1120.12 324.21L1126.12 327.67L1132.03 324.27L1126.02 320.8L1120.12 324.21Z"/>
                    <path class="shp22"
                          d="M1111.75 319.38L1117.76 322.85L1123.67 319.44L1117.66 315.97L1111.75 319.38Z"/>
                    <path class="shp22" d="M1103.4 314.56L1109.41 318.02L1115.31 314.61L1109.31 311.15L1103.4 314.56Z"/>
                    <path class="shp22"
                          d="M1102.07 324.97L1108.08 328.44L1113.98 325.03L1107.98 321.56L1102.07 324.97Z"/>
                    <path class="shp22" d="M1102.63 334.3L1108.64 337.77L1114.55 334.36L1108.54 330.89L1102.63 334.3Z"/>
                    <path class="shp22"
                          d="M1094.28 329.48L1100.28 332.94L1106.19 329.53L1100.18 326.06L1094.28 329.48Z"/>
                    <path class="shp22"
                          d="M1085.92 324.65L1091.93 328.12L1097.83 324.71L1091.82 321.24L1085.92 324.65Z"/>
                </g>
            </g>
        </g>
    </g>
</svg>